<?xml version="1.0" encoding="utf-8"?>
<!-- Generator: Adobe Illustrator 17.0.1, SVG Export Plug-In . SVG Version: 6.00 Build 0)  -->
<!DOCTYPE svg PUBLIC "-//W3C//DTD SVG 1.1//EN" "http://www.w3.org/Graphics/SVG/1.1/DTD/svg11.dtd">
<svg version="1.1" id="Layer_1" xmlns="http://www.w3.org/2000/svg" xmlns:xlink="http://www.w3.org/1999/xlink" x="0px" y="0px"
	 width="141.39px" height="110.728px" viewBox="0 0 141.39 110.728" enable-background="new 0 0 141.39 110.728"
	 xml:space="preserve">
<rect y="-8.374" fill="#939598" width="141.39" height="5.41"/>
<rect x="-86.341" fill="#939598" width="5" height="110.728"/>
<g>
	<g>
		<g id="XMLID_1_">
			<g>
				<path fill="#939598" d="M261.405,190.01v30.013c0,3.168-2.564,5.732-5.731,5.732h-8.564l4.685,24.711
					c0.403,2.094-0.886,4.094-2.872,4.47c-1.987,0.376-3.906-1.02-4.309-3.101l-4.121-21.718h-37.986l-4.121,21.718
					c-0.403,2.081-2.322,3.476-4.309,3.101c-1.987-0.376-3.275-2.376-2.872-4.47l4.685-24.711h-8.564
					c-3.168,0-5.731-2.564-5.731-5.732V190.01c0-3.168,2.564-5.731,5.731-5.731h16.429l0.725-3.799
					c0.389-2.094,2.295-3.289,4.309-3.101c3.638,0.362,2.913,4.255,2.913,4.255h6.148v-32.859c0-2.121,1.638-3.839,3.651-3.839
					s3.651,1.718,3.651,3.839v32.859h6.148c0,0-0.591-3.584,2.913-4.255c1.987-0.376,3.919,1.007,4.309,3.101l0.725,3.799h16.429
					C258.841,184.279,261.405,186.843,261.405,190.01z M260.17,205.017c0-2.054-1.678-3.732-3.745-3.732
					c-2.054,0-3.732,1.678-3.732,3.732c0,2.067,1.678,3.745,3.732,3.745C258.493,208.762,260.17,207.084,260.17,205.017z
					 M251.432,224.01v-38.496h-62.523v38.496H251.432z M186.077,207.675v-5.315h-1.141v5.315H186.077z"/>
				<path fill="#FFFFFF" d="M256.425,201.286c2.067,0,3.745,1.678,3.745,3.732c0,2.067-1.678,3.745-3.745,3.745
					c-2.054,0-3.732-1.678-3.732-3.745C252.694,202.963,254.372,201.286,256.425,201.286z M259.029,205.044
					c0-1.436-1.168-2.591-2.604-2.591c-1.423,0-2.591,1.154-2.591,2.591c0,1.423,1.168,2.591,2.591,2.591
					C257.862,207.635,259.029,206.467,259.029,205.044z"/>
				<path fill="#939598" d="M256.425,202.453c1.436,0,2.604,1.154,2.604,2.591c0,1.423-1.168,2.591-2.604,2.591
					c-1.423,0-2.591-1.168-2.591-2.591C253.835,203.608,255.003,202.453,256.425,202.453z"/>
				<rect x="188.909" y="185.514" fill="#FFFFFF" width="62.523" height="38.496"/>
				<rect x="184.936" y="202.359" fill="#FFFFFF" width="1.141" height="5.315"/>
			</g>
		</g>
	</g>
</g>
<path fill="#A0A0A0" d="M67.88,61.159c-1.284-0.018-2.51-0.057-3.677-0.115l-0.821-9.035l-0.158-1.734l-1.096-12.06
	c0-2.34-1.288-4.156-3.183-4.874c2.356-2.495,3.515-6.585,2.898-10.935C59.497,5.869,52.579,2.521,47.378,2.512
	c-3.576-0.007-2.902,1.165-0.471,3.16c0.544,0.447,1.069,1.008,1.544,1.71c1.672,2.475-1.295,5.767-3.125,8.379
	c-1.761,2.513-2.562,6.064-1.925,9.792c0.756,4.427,3.341,7.951,6.527,9.464c-1.427,1.322-1.991,3.382-1.275,5.51l2.857,11.231
	l0.39,1.534l0.148,0.583c0.107,0.304,0.199,0.613,0.255,0.935c0.004,0.022-0.004,0.039-0.002,0.06l1.233,4.849
	c-4.611-1.042-6.905-2.459-6.905-3.61c0-0.851,1.251-1.706,3.742-2.424c-0.197-0.498-0.381-1-0.505-1.521
	c-3.635,0.988-5.61,2.212-5.879,3.652h-0.033v47.492l0,0c0.001,1.817,2.592,4.279,7.7,5.406c4.765,1.051,11.096,1.63,17.827,1.63
	c6.73,0,13.061-0.579,17.826-1.63c5.109-1.127,7.7-3.59,7.7-5.407c0-0.025-0.006-0.05-0.007-0.075V56.236
	c0.001-0.025,0.007-0.049,0.007-0.074s-0.006-0.05-0.007-0.075v-0.271h-0.026c-0.29-1.551-2.58-2.849-6.77-3.873
	c-0.22,0.559-0.465,1.108-0.695,1.663c2.798,0.779,4.157,1.728,4.157,2.644c0,1.213-2.322,2.673-7.253,3.687l2.043-6.604
	l0.518-1.675l3.8-12.285c0.833-2.171,0.633-4.287-0.357-5.59c2.437-1.522,4.303-5.036,5.797-9.166
	c4.718-13.045-0.118-19.852-2.424-23.31c-0.458-0.686-0.763-0.956-0.938-0.92c-0.386,0.078,0.353,7.57-5.128,12.517
	c-1.996,1.802-3.842,4.763-4.751,8.434c-1.079,4.36-0.635,8.496,0.92,10.97c-1.409,0.746-2.513,2.467-2.799,4.682L78.58,50.473
	l-0.32,1.718l-1.63,8.746c-0.922,0.064-1.886,0.117-2.898,0.156l0.381-9.124l0.074-1.774l0.421-10.073
	c0.216-2.308-1.502-4.331-2.494-5.356c1.546-2.067,2.771-14.238,3.06-19.006l-9.518,0.495c0.165,3.458,1.768,16.657,3.407,18.68
	c-0.919,1.065-2.396,3.002-2.192,5.22l0.479,9.963l0.086,1.782L67.88,61.159 M73.865,86.113c-0.005-0.001-0.029-0.009-0.037-0.011
	C73.837,86.104,73.86,86.112,73.865,86.113"/>
<g>
	<path fill="none" d="M216.498,15.255c-0.521,0.388-1.16,0.626-1.86,0.626c-0.652,0-1.256-0.2-1.757-0.541l-9.856,9.856h23.413
		L216.498,15.255z"/>
	<path fill="#939598" d="M268.574,64.212l-0.433-0.433V31.47c0-3.466-2.533-6.275-5.657-6.275h-32.94l-11.841-11.837
		c0.038-0.196,0.061-0.397,0.061-0.604c0-1.727-1.4-3.126-3.126-3.126c-1.727,0-3.126,1.4-3.126,3.126
		c0,0.256,0.039,0.5,0.097,0.738l-11.703,11.703h-34.659c-3.124,0-5.657,2.809-5.657,6.275v61.983c0,3.465,2.533,6.275,5.657,6.275
		h97.238c3.124,0,5.657-2.809,5.657-6.275V64.644L268.574,64.212z M212.881,15.339c0.501,0.341,1.105,0.541,1.757,0.541
		c0.7,0,1.339-0.238,1.86-0.626l9.941,9.941h-23.413L212.881,15.339z M213.866,96.255c-2.039,0-3.693-1.653-3.693-3.692
		s1.653-3.693,3.693-3.693c2.039,0,3.692,1.653,3.692,3.693S215.905,96.255,213.866,96.255z M164.563,85.736V31.182h98.606v54.554
		H164.563z"/>
	<rect x="164.563" y="31.182" fill="#FFFFFF" width="98.606" height="54.554"/>
	<circle fill="#FFFFFF" cx="213.866" cy="92.563" r="3.693"/>
</g>
<g>
	<path fill="none" d="M82.058,131.967c-0.521,0.388-1.16,0.626-1.86,0.626c-0.652,0-1.256-0.2-1.757-0.541l-42.856,25.856h88.413
		L82.058,131.967z"/>
	<path fill="#939598" d="M133.702,196.491v-32.309c0-3.466-2.533-6.275-5.657-6.275h-0.94L83.264,130.07
		c0.038-0.196,0.061-0.397,0.061-0.604c0-1.727-1.4-3.126-3.126-3.126c-1.727,0-3.126,1.4-3.126,3.126
		c0,0.256,0.039,0.5,0.097,0.738l-44.703,27.703h-1.659c-3.124,0-5.657,2.809-5.657,6.275v61.983c0,3.465,2.533,6.275,5.657,6.275
		h97.238c3.124,0,5.657-2.809,5.657-6.275v-28.809 M78.442,132.051c0.501,0.341,1.105,0.541,1.757,0.541
		c0.7,0,1.339-0.238,1.86-0.626L123,157.907H36.586L78.442,132.051z M79.426,228.967c-2.039,0-3.693-1.653-3.693-3.692
		s1.653-3.693,3.693-3.693c2.039,0,3.692,1.653,3.692,3.693C83.118,227.314,81.465,228.967,79.426,228.967z M30.123,218.448v-54.554
		h98.606v54.554H30.123z"/>
	<rect x="30.123" y="163.894" fill="#FFFFFF" width="98.606" height="54.554"/>
	<circle fill="#FFFFFF" cx="79.426" cy="225.275" r="3.693"/>
</g>
</svg>
