<?xml version="1.0" encoding="utf-8"?>
<!-- Generator: Adobe Illustrator 17.0.1, SVG Export Plug-In . SVG Version: 6.00 Build 0)  -->
<!DOCTYPE svg PUBLIC "-//W3C//DTD SVG 1.1//EN" "http://www.w3.org/Graphics/SVG/1.1/DTD/svg11.dtd">
<svg version="1.1" id="Layer_1" xmlns="http://www.w3.org/2000/svg" xmlns:xlink="http://www.w3.org/1999/xlink" x="0px" y="0px"
	 width="141.39px" height="110.728px" viewBox="0 0 141.39 110.728" enable-background="new 0 0 141.39 110.728"
	 xml:space="preserve">
<rect y="-8.374" fill="#939598" width="141.39" height="5.41"/>
<rect x="-86.341" fill="#939598" width="5" height="110.728"/>
<g>
	<g>
		<g id="XMLID_1_">
			<g>
				<path fill="#A0A0A0" d="M110.601,45.407V75.42c0,3.168-2.564,5.731-5.731,5.731h-8.564l4.685,24.711
					c0.403,2.094-0.886,4.094-2.872,4.47c-1.987,0.376-3.906-1.02-4.309-3.101l-4.121-21.718H51.702l-4.121,21.718
					c-0.403,2.081-2.322,3.476-4.309,3.101c-1.987-0.376-3.275-2.376-2.872-4.47l4.685-24.711h-8.564
					c-3.168,0-5.731-2.564-5.731-5.731V45.407c0-3.168,2.564-5.731,5.731-5.731H52.95l0.725-3.799
					c0.389-2.094,2.295-3.289,4.309-3.101c3.638,0.362,2.913,4.255,2.913,4.255h6.148V4.173c0-2.121,1.638-3.839,3.651-3.839
					s3.651,1.718,3.651,3.839v32.859h6.148c0,0-0.591-3.584,2.913-4.255c1.987-0.376,3.919,1.007,4.309,3.101l0.725,3.799h16.429
					C108.037,39.676,110.601,42.24,110.601,45.407z M109.366,60.414c0-2.054-1.678-3.732-3.745-3.732
					c-2.054,0-3.732,1.678-3.732,3.732c0,2.067,1.678,3.745,3.732,3.745C107.688,64.159,109.366,62.481,109.366,60.414z
					 M100.628,79.407V40.911H38.105v38.496H100.628z M35.273,63.072v-5.315h-1.141v5.315H35.273z"/>
				<path fill="#FFFFFF" d="M105.621,56.683c2.067,0,3.745,1.678,3.745,3.732c0,2.067-1.678,3.745-3.745,3.745
					c-2.054,0-3.732-1.678-3.732-3.745C101.89,58.36,103.567,56.683,105.621,56.683z M108.225,60.441
					c0-1.436-1.168-2.591-2.604-2.591c-1.423,0-2.591,1.154-2.591,2.591c0,1.423,1.168,2.591,2.591,2.591
					C107.057,63.032,108.225,61.864,108.225,60.441z"/>
				<path fill="#939598" d="M105.621,57.85c1.436,0,2.604,1.154,2.604,2.591c0,1.423-1.168,2.591-2.604,2.591
					c-1.423,0-2.591-1.168-2.591-2.591C103.031,59.005,104.198,57.85,105.621,57.85z"/>
				<rect x="38.105" y="40.911" fill="#FFFFFF" width="62.523" height="38.496"/>
				<rect x="34.132" y="57.756" fill="#FFFFFF" width="1.141" height="5.315"/>
			</g>
		</g>
	</g>
</g>
<path fill="#939598" d="M-42.076-63.429c-1.284-0.018-2.51-0.057-3.677-0.115l-0.821-9.035l-0.158-1.734l-1.096-12.06
	c0-2.34-1.288-4.156-3.183-4.874c2.356-2.495,3.515-6.585,2.898-10.935c-2.346-16.537-9.265-19.884-14.465-19.893
	c-3.576-0.007-2.902,1.165-0.471,3.16c0.544,0.447,1.069,1.008,1.544,1.71c1.672,2.475-1.295,5.767-3.125,8.379
	c-1.761,2.513-2.562,6.064-1.925,9.792c0.756,4.427,3.341,7.951,6.527,9.464c-1.427,1.322-1.991,3.382-1.275,5.51l2.857,11.231
	l0.39,1.534l0.148,0.583c0.107,0.304,0.199,0.613,0.255,0.935c0.004,0.022-0.004,0.039-0.002,0.06l1.233,4.849
	c-4.611-1.042-6.905-2.459-6.905-3.61c0-0.851,1.251-1.706,3.742-2.424c-0.197-0.498-0.381-1-0.505-1.521
	c-3.635,0.988-5.61,2.212-5.879,3.652h-0.033v47.492l0,0c0.001,1.817,2.592,4.279,7.7,5.406c4.765,1.051,11.096,1.63,17.827,1.63
	c6.73,0,13.061-0.579,17.826-1.63c5.109-1.127,7.7-3.59,7.7-5.407c0-0.025-0.006-0.05-0.007-0.075v-46.997
	c0.001-0.025,0.007-0.049,0.007-0.074c0-0.025-0.006-0.05-0.007-0.075v-0.271h-0.026c-0.29-1.551-2.58-2.849-6.77-3.873
	c-0.22,0.559-0.465,1.108-0.695,1.663c2.798,0.779,4.157,1.728,4.157,2.644c0,1.213-2.322,2.673-7.253,3.687l2.043-6.604
	l0.518-1.675l3.8-12.285c0.833-2.171,0.633-4.287-0.357-5.59c2.437-1.522,4.303-5.036,5.797-9.166
	c4.718-13.045-0.118-19.852-2.424-23.31c-0.458-0.686-0.763-0.956-0.938-0.92c-0.386,0.078,0.353,7.57-5.128,12.517
	c-1.996,1.802-3.842,4.763-4.751,8.434c-1.079,4.36-0.635,8.496,0.92,10.97c-1.409,0.746-2.513,2.467-2.799,4.682l-2.514,13.483
	l-0.32,1.718l-1.63,8.746c-0.922,0.064-1.886,0.117-2.898,0.156l0.381-9.124l0.074-1.774l0.421-10.073
	c0.216-2.308-1.502-4.331-2.494-5.356c1.546-2.067,2.771-14.238,3.06-19.006l-9.518,0.495c0.165,3.458,1.768,16.657,3.407,18.68
	c-0.919,1.065-2.396,3.002-2.192,5.22l0.479,9.963l0.086,1.782L-42.076-63.429 M-36.091-38.475
	c-0.005-0.001-0.029-0.009-0.037-0.011C-36.12-38.484-36.096-38.476-36.091-38.475c0.017,0.004,0.061,0.017,0.127,0.03
	C-36.03-38.458-36.074-38.47-36.091-38.475z"/>
<g>
	<path fill="none" d="M-11.204,157.851c-0.521,0.388-1.16,0.626-1.86,0.626c-0.652,0-1.256-0.2-1.757-0.541l-42.856,25.856h88.413
		L-11.204,157.851z"/>
	<path fill="#939598" d="M40.44,222.375v-32.309c0-3.466-2.533-6.275-5.657-6.275h-0.94l-43.841-27.837
		c0.038-0.196,0.061-0.397,0.061-0.604c0-1.727-1.4-3.126-3.126-3.126c-1.727,0-3.126,1.4-3.126,3.126
		c0,0.256,0.039,0.5,0.097,0.738l-44.703,27.703h-1.659c-3.124,0-5.657,2.809-5.657,6.275v61.983c0,3.465,2.533,6.275,5.657,6.275
		h97.238c3.124,0,5.657-2.809,5.657-6.275V223.24 M-14.82,157.936c0.501,0.341,1.105,0.541,1.757,0.541
		c0.7,0,1.339-0.238,1.86-0.626l40.941,25.941h-86.413L-14.82,157.936z M-13.836,254.852c-2.039,0-3.693-1.653-3.693-3.692
		s1.653-3.693,3.693-3.693c2.039,0,3.692,1.653,3.692,3.693S-11.797,254.852-13.836,254.852z M-63.139,244.333v-54.554h98.606
		v54.554H-63.139z"/>
	<rect x="-63.139" y="189.779" fill="#FFFFFF" width="98.606" height="54.554"/>
	<circle fill="#FFFFFF" cx="-13.836" cy="251.159" r="3.693"/>
</g>
<g>
	<path fill="none" d="M246.729,16.13c-0.521,0.388-1.16,0.626-1.86,0.626c-0.652,0-1.256-0.2-1.757-0.541l-9.856,9.856h23.413
		L246.729,16.13z"/>
	<path fill="#939598" d="M298.806,65.087l-0.433-0.433V32.345c0-3.466-2.533-6.275-5.657-6.275h-32.94l-11.841-11.837
		c0.038-0.196,0.061-0.397,0.061-0.604c0-1.727-1.4-3.126-3.126-3.126c-1.727,0-3.126,1.4-3.126,3.126
		c0,0.256,0.039,0.5,0.097,0.738L230.138,26.07h-34.659c-3.124,0-5.657,2.809-5.657,6.275v61.983c0,3.465,2.533,6.275,5.657,6.275
		h97.238c3.124,0,5.657-2.809,5.657-6.275V65.52L298.806,65.087z M243.113,16.215c0.501,0.341,1.105,0.541,1.757,0.541
		c0.7,0,1.339-0.238,1.86-0.626l9.941,9.941h-23.413L243.113,16.215z M244.097,97.131c-2.039,0-3.693-1.653-3.693-3.692
		s1.653-3.693,3.693-3.693c2.039,0,3.692,1.653,3.692,3.693C247.79,95.477,246.137,97.131,244.097,97.131z M194.794,86.611V32.057
		H293.4v54.554H194.794z"/>
	<rect x="194.794" y="32.057" fill="#FFFFFF" width="98.606" height="54.554"/>
	<circle fill="#FFFFFF" cx="244.097" cy="93.438" r="3.693"/>
</g>
</svg>
