<?xml version="1.0" encoding="utf-8"?>
<!-- Generator: Adobe Illustrator 17.0.1, SVG Export Plug-In . SVG Version: 6.00 Build 0)  -->
<!DOCTYPE svg PUBLIC "-//W3C//DTD SVG 1.1//EN" "http://www.w3.org/Graphics/SVG/1.1/DTD/svg11.dtd">
<svg version="1.1" id="Layer_1" xmlns="http://www.w3.org/2000/svg" xmlns:xlink="http://www.w3.org/1999/xlink" x="0px" y="0px"
	 width="40px" height="40px" viewBox="0 0 40 40" enable-background="new 0 0 40 40" xml:space="preserve">
<path fill="#FFFFFF" d="M-78.686-12.451h-5.131v-3.365c0-1.264,0.837-1.559,1.427-1.559c0.589,0,3.621,0,3.621,0v-5.556l-4.987-0.02
	c-5.536,0-6.796,4.144-6.796,6.796v3.703h-3.201v5.725h3.201c0,7.348,0,16.2,0,16.2h6.735c0,0,0-8.94,0-16.2h4.543L-78.686-12.451z"
	/>
<g>
	<path d="M-272.457,0.988V0.936c-0.01,0.017-0.023,0.035-0.033,0.052H-272.457z"/>
	<path d="M-259.574-14.07h-28.271c-1.353,0-2.451,1.071-2.451,2.392v28.601c0,1.32,1.098,2.392,2.451,2.392h28.271
		c1.355,0,2.452-1.072,2.452-2.392v-28.601C-257.122-12.999-258.22-14.07-259.574-14.07z M-280.241,13.877h-5.011V-1.198h5.011
		V13.877z M-282.745-3.256h-0.033c-1.681,0-2.768-1.158-2.768-2.604c0-1.478,1.121-2.604,2.834-2.604
		c1.714,0,2.769,1.126,2.802,2.604C-279.91-4.414-280.999-3.256-282.745-3.256z M-262.173,13.877h-5.01V5.811
		c0-2.026-0.725-3.408-2.538-3.408c-1.384,0-2.208,0.932-2.571,1.833c-0.132,0.322-0.165,0.771-0.165,1.222v8.419h-5.011
		c0,0,0.066-13.661,0-15.074h5.011v2.134c0.666-1.027,1.857-2.489,4.517-2.489c3.296,0,5.767,2.155,5.767,6.786L-262.173,13.877
		L-262.173,13.877z"/>
</g>
<path fill="#A0A0A0" d="M36.532,9.745c-1.216,0.54-2.523,0.905-3.896,1.068c1.401-0.839,2.476-2.168,2.983-3.753
	c-1.311,0.778-2.762,1.342-4.308,1.647c-1.237-1.318-3-2.142-4.951-2.142c-3.746,0-6.784,3.037-6.784,6.784
	c0,0.532,0.06,1.049,0.176,1.546C14.114,14.611,9.115,11.911,5.77,7.806c-0.584,1.002-0.918,2.167-0.918,3.41
	c0,2.353,1.198,4.43,3.018,5.646c-1.112-0.036-2.158-0.34-3.073-0.849c-0.001,0.028-0.001,0.057-0.001,0.086
	c0,3.286,2.338,6.028,5.442,6.652c-0.569,0.155-1.169,0.238-1.787,0.238c-0.438,0-0.862-0.042-1.277-0.122
	c0.864,2.695,3.369,4.656,6.337,4.711c-2.322,1.82-5.246,2.904-8.425,2.904c-0.547,0-1.087-0.032-1.618-0.095
	c3.003,1.925,6.568,3.048,10.399,3.048c12.478,0,19.301-10.337,19.301-19.301c0-0.294-0.006-0.587-0.019-0.878
	C34.473,12.3,35.624,11.106,36.532,9.745z"/>
<g>
	<path fill="#FFFFFF" d="M151.47,18.733h-5.042v-5.041c0-0.385-0.312-0.697-0.697-0.697h-1.435c-0.386,0-0.699,0.313-0.699,0.697
		v5.041h-5.042c-0.384,0-0.697,0.313-0.697,0.698v1.436c0,0.385,0.313,0.697,0.697,0.697h5.042v5.042
		c0,0.385,0.313,0.697,0.699,0.697h1.435c0.385,0,0.697-0.312,0.697-0.697v-5.042h5.042c0.384,0,0.697-0.312,0.697-0.697v-1.436
		C152.168,19.046,151.854,18.733,151.47,18.733z"/>
	<path fill="#FFFFFF" d="M134.527,23.152c-1.06-0.751-2.025-1.852-2.042-2.19c0-0.617,0.055-0.911,1.437-1.987
		c1.787-1.399,2.771-3.239,2.771-5.181c0-1.762-0.538-3.327-1.455-4.426h0.711c0.147,0,0.291-0.046,0.41-0.132l1.983-1.437
		c0.246-0.176,0.349-0.492,0.255-0.779c-0.094-0.287-0.361-0.483-0.663-0.483h-8.87c-0.971,0-1.957,0.171-2.925,0.504
		c-3.233,1.115-5.493,3.869-5.493,6.697c0,4.006,3.104,7.043,7.252,7.139c-0.081,0.317-0.122,0.63-0.122,0.937
		c0,0.617,0.157,1.202,0.478,1.767c-0.037,0.001-0.074,0.001-0.114,0.001c-3.954,0-7.524,1.94-8.879,4.828
		c-0.353,0.751-0.533,1.51-0.533,2.259c0,0.729,0.187,1.431,0.554,2.09c0.851,1.523,2.681,2.706,5.153,3.33
		c1.276,0.322,2.647,0.487,4.071,0.487c1.279,0,2.499-0.166,3.627-0.492c3.516-1.021,5.788-3.608,5.788-6.597
		C137.921,26.619,137,24.903,134.527,23.152z M123.323,29.716c0-2.086,2.649-3.915,5.669-3.915l0.081,0.001
		c0.657,0.007,1.298,0.105,1.903,0.29c0.206,0.143,0.407,0.279,0.599,0.41c1.399,0.953,2.322,1.582,2.58,2.592
		c0.06,0.254,0.09,0.508,0.09,0.754c0,2.597-1.937,3.914-5.758,3.914C125.592,33.761,123.323,31.984,123.323,29.716z
		 M126.071,10.011c0.472-0.539,1.09-0.823,1.784-0.823l0.079,0.001c1.96,0.058,3.836,2.242,4.182,4.87
		c0.193,1.472-0.134,2.855-0.874,3.698c-0.473,0.539-1.082,0.824-1.804,0.824c0,0,0,0-0.001,0h-0.031
		c-1.92-0.058-3.836-2.327-4.179-4.951C125.032,12.163,125.341,10.844,126.071,10.011z"/>
</g>
</svg>
