<?xml version="1.0" encoding="utf-8"?>
<!-- Generator: Adobe Illustrator 17.0.1, SVG Export Plug-In . SVG Version: 6.00 Build 0)  -->
<!DOCTYPE svg PUBLIC "-//W3C//DTD SVG 1.1//EN" "http://www.w3.org/Graphics/SVG/1.1/DTD/svg11.dtd">
<svg version="1.1" id="Layer_1" xmlns="http://www.w3.org/2000/svg" xmlns:xlink="http://www.w3.org/1999/xlink" x="0px" y="0px"
	 width="61px" height="80px" viewBox="0 0 61 80" enable-background="new 0 0 61 80" xml:space="preserve">
<path fill="#B25251" d="M57.273,27.376c-2.257-4.722-5.801-8.825-10.251-11.865c-0.172-0.117-0.343-0.177-0.51-0.177
	c-0.326,0-0.656,0.247-0.656,0.799v9.929c0,0.549,0.319,1.296,0.727,1.701c2.96,2.946,5.192,6.946,6.285,11.264
	c0.794,3.139,0.961,6.339,0.508,9.455c0.133-3.425-0.418-6.866-1.337-8.821c-1.029-2.645-2.835-5.381-5.087-7.704
	c-0.183-0.189-0.369-0.284-0.554-0.284c-0.249,0-0.541,0.192-0.541,0.735v11.465c0,0.557,0.196,1.36,0.385,1.814
	c1.215,2.916,1.597,6.079,1.105,9.148c-0.501,3.128-1.905,6.096-4.061,8.584c-0.051,0.059-0.14,0.026-0.141-0.058
	c-0.008-1.713-0.046-48.559-0.046-49.031c0-0.61-0.431-1.27-0.982-1.503c-3.685-1.56-7.577-2.35-11.567-2.35
	c-1.488,0-2.984,0.114-4.445,0.338c-6.043,0.929-11.551,3.635-15.929,7.827C5.8,22.831,2.832,28.236,1.592,34.27
	C0.38,39.778,0.975,45.838,3.268,51.333c1.137,2.725,2.656,5.257,4.514,7.524c1.912,2.333,4.14,4.331,6.622,5.939
	c0.168,0.109,0.336,0.164,0.499,0.164c0.335,0,0.673-0.25,0.673-0.81v-3.345c0-0.506-0.17-1.303-0.388-1.815
	c-1.958-4.612-1.963-9.18-0.017-13.575c0.199-0.449,0.404-1.249,0.404-1.812V31.975c0-0.545-0.295-0.739-0.548-0.739
	c-0.127,0-0.326,0.048-0.553,0.278c-1.733,1.747-4.1,4.665-5.535,8.648c-1.063,2.949-1.567,5.111-1.266,8.235
	c-0.201-0.944-0.176-0.997-0.24-1.939c-0.181-2.641,0.088-5.278,0.798-7.835c1.232-4.435,3.809-8.615,7.256-11.768l0.314-0.282
	c0.719-0.635,1.466-1.216,2.218-1.725c0.104-0.071,0.173-0.081,0.205-0.081c0.033,0,0.053,0.01,0.072,0.035
	c0.035,0.046,0.055,0.131,0.055,0.233c-0.002,5.036-0.013,35.246-0.015,40.851c0,0.614,0.455,1.241,1.036,1.428
	c1.905,0.612,6.576,2.053,8.81,2.206c0.026,0.002,0.052,0.003,0.078,0.003c0.293,0,0.567-0.114,0.774-0.32
	c0.212-0.212,0.328-0.497,0.328-0.802l-0.051-46.684c0-0.167,0.077-0.342,0.212-0.477c0.133-0.133,0.303-0.21,0.465-0.21h1.505
	c0.345,0,0.626,0.281,0.626,0.626v38.905l0.007,7.82c0.001,0.621,0.479,1.107,1.089,1.107l0,0c0.031,0,0.062-0.001,0.094-0.004
	c5.933-0.494,11.797-2.991,16.513-7.029c5.26-4.505,8.667-10.554,9.855-17.497C60.663,38.691,59.853,32.776,57.273,27.376z"/>
</svg>
