<?xml version="1.0" encoding="utf-8"?>
<!-- Generator: Adobe Illustrator 17.0.1, SVG Export Plug-In . SVG Version: 6.00 Build 0)  -->
<!DOCTYPE svg PUBLIC "-//W3C//DTD SVG 1.1//EN" "http://www.w3.org/Graphics/SVG/1.1/DTD/svg11.dtd">
<svg version="1.1" id="Layer_1" xmlns="http://www.w3.org/2000/svg" xmlns:xlink="http://www.w3.org/1999/xlink" x="0px" y="0px"
	 width="141.39px" height="110.728px" viewBox="0 0 141.39 110.728" enable-background="new 0 0 141.39 110.728"
	 xml:space="preserve">
<rect y="-8.374" fill="#939598" width="141.39" height="5.41"/>
<rect x="-86.341" fill="#939598" width="5" height="110.728"/>
<g>
	<g>
		<g id="XMLID_1_">
			<g>
				<path fill="#9E8671" d="M370.288,201.585v30.013c0,3.168-2.564,5.732-5.731,5.732h-8.564l4.685,24.711
					c0.403,2.094-0.886,4.094-2.872,4.47c-1.987,0.376-3.906-1.02-4.309-3.101l-4.121-21.718H311.39l-4.121,21.718
					c-0.403,2.081-2.322,3.476-4.309,3.101c-1.987-0.376-3.275-2.376-2.872-4.47l4.685-24.711h-8.564
					c-3.168,0-5.731-2.564-5.731-5.732v-30.013c0-3.168,2.564-5.731,5.731-5.731h16.429l0.725-3.799
					c0.389-2.094,2.295-3.289,4.309-3.101c3.638,0.362,2.913,4.255,2.913,4.255h6.148V160.35c0-2.121,1.638-3.839,3.651-3.839
					s3.651,1.718,3.651,3.839v32.859h6.148c0,0-0.591-3.584,2.913-4.255c1.987-0.376,3.919,1.007,4.309,3.101l0.725,3.799h16.429
					C367.724,195.854,370.288,198.418,370.288,201.585z M369.053,216.592c0-2.054-1.678-3.732-3.745-3.732
					c-2.054,0-3.732,1.678-3.732,3.732c0,2.067,1.678,3.745,3.732,3.745C367.376,220.337,369.053,218.659,369.053,216.592z
					 M360.315,235.585v-38.496h-62.523v38.496H360.315z M294.96,219.25v-5.315h-1.141v5.315H294.96z"/>
				<path fill="#9E8671" d="M365.308,212.861c2.067,0,3.745,1.678,3.745,3.732c0,2.067-1.678,3.745-3.745,3.745
					c-2.054,0-3.732-1.678-3.732-3.745C361.577,214.538,363.255,212.861,365.308,212.861z M367.912,216.619
					c0-1.436-1.168-2.591-2.604-2.591c-1.423,0-2.591,1.154-2.591,2.591c0,1.423,1.168,2.591,2.591,2.591
					C366.745,219.21,367.912,218.042,367.912,216.619z"/>
				<path fill="#9E8671" d="M365.308,214.028c1.436,0,2.604,1.154,2.604,2.591c0,1.423-1.168,2.591-2.604,2.591
					c-1.423,0-2.591-1.168-2.591-2.591C362.718,215.183,363.886,214.028,365.308,214.028z"/>
				<rect x="297.792" y="197.089" fill="#9E8671" width="62.523" height="38.496"/>
				<rect x="293.819" y="213.934" fill="#9E8671" width="1.141" height="5.315"/>
			</g>
		</g>
	</g>
</g>
<path fill="#939598" d="M-59.145,231.159c-1.284-0.018-2.51-0.057-3.677-0.115l-0.821-9.035l-0.158-1.734l-1.096-12.06
	c0-2.34-1.288-4.156-3.183-4.874c2.356-2.495,3.515-6.585,2.898-10.935c-2.346-16.537-9.264-19.885-14.465-19.894
	c-3.576-0.007-2.902,1.165-0.471,3.16c0.544,0.447,1.069,1.008,1.544,1.71c1.672,2.475-1.295,5.767-3.125,8.379
	c-1.761,2.513-2.562,6.064-1.925,9.792c0.756,4.427,3.341,7.951,6.527,9.464c-1.427,1.322-1.991,3.382-1.275,5.51l2.857,11.231
	l0.39,1.534l0.148,0.583c0.107,0.304,0.199,0.613,0.255,0.935c0.004,0.022-0.004,0.039-0.002,0.06l1.233,4.849
	c-4.611-1.042-6.905-2.459-6.905-3.61c0-0.851,1.251-1.706,3.742-2.424c-0.197-0.498-0.381-1-0.505-1.521
	c-3.635,0.988-5.61,2.212-5.879,3.652h-0.033v47.492l0,0c0.001,1.817,2.592,4.279,7.7,5.406c4.765,1.051,11.096,1.63,17.827,1.63
	c6.73,0,13.061-0.579,17.826-1.63c5.109-1.127,7.7-3.59,7.7-5.407c0-0.025-0.006-0.05-0.007-0.075v-46.996
	c0.001-0.025,0.007-0.049,0.007-0.074c0-0.025-0.006-0.05-0.007-0.075v-0.271h-0.026c-0.29-1.551-2.58-2.849-6.77-3.873
	c-0.22,0.559-0.465,1.108-0.695,1.663c2.798,0.779,4.157,1.728,4.157,2.644c0,1.213-2.322,2.673-7.253,3.687l2.043-6.604
	l0.518-1.675l3.8-12.285c0.833-2.171,0.633-4.287-0.357-5.59c2.437-1.522,4.303-5.036,5.797-9.166
	c4.718-13.045-0.118-19.852-2.424-23.31c-0.458-0.686-0.763-0.956-0.938-0.92c-0.386,0.078,0.353,7.57-5.128,12.517
	c-1.996,1.802-3.842,4.763-4.751,8.434c-1.079,4.36-0.635,8.496,0.92,10.97c-1.409,0.746-2.513,2.467-2.799,4.682l-2.514,13.483
	l-0.32,1.718l-1.63,8.746c-0.922,0.064-1.886,0.117-2.898,0.156l0.381-9.124l0.074-1.774l0.421-10.073
	c0.216-2.308-1.502-4.331-2.494-5.356c1.546-2.067,2.771-14.238,3.06-19.006l-9.518,0.495c0.165,3.458,1.768,16.657,3.407,18.68
	c-0.919,1.065-2.396,3.002-2.192,5.22l0.479,9.963l0.086,1.782L-59.145,231.159 M-53.16,256.113
	c-0.005-0.001-0.029-0.009-0.037-0.011C-53.188,256.104-53.165,256.112-53.16,256.113c0.017,0.004,0.061,0.017,0.127,0.03
	C-53.099,256.13-53.143,256.117-53.16,256.113z"/>
<g>
	<path fill="none" d="M216.498,15.255c-0.521,0.388-1.16,0.626-1.86,0.626c-0.652,0-1.256-0.2-1.757-0.541l-9.856,9.856h23.413
		L216.498,15.255z"/>
	<path fill="#939598" d="M268.574,64.212l-0.433-0.433V31.47c0-3.466-2.533-6.275-5.657-6.275h-32.94l-11.841-11.837
		c0.038-0.196,0.061-0.397,0.061-0.604c0-1.727-1.4-3.126-3.126-3.126c-1.727,0-3.126,1.4-3.126,3.126
		c0,0.256,0.039,0.5,0.097,0.738l-11.703,11.703h-34.659c-3.124,0-5.657,2.809-5.657,6.275v61.983c0,3.465,2.533,6.275,5.657,6.275
		h97.238c3.124,0,5.657-2.809,5.657-6.275V64.644L268.574,64.212z M212.881,15.339c0.501,0.341,1.105,0.541,1.757,0.541
		c0.7,0,1.339-0.238,1.86-0.626l9.941,9.941h-23.413L212.881,15.339z M213.866,96.255c-2.039,0-3.693-1.653-3.693-3.692
		s1.653-3.693,3.693-3.693c2.039,0,3.692,1.653,3.692,3.693S215.905,96.255,213.866,96.255z M164.563,85.736V31.182h98.606v54.554
		H164.563z"/>
	<rect x="164.563" y="31.182" fill="#FFFFFF" width="98.606" height="54.554"/>
	<circle fill="#FFFFFF" cx="213.866" cy="92.563" r="3.693"/>
</g>
<g>
	<path fill="#A0A0A0" d="M124.97,74.081V41.772c0-3.466-2.533-6.275-5.657-6.275h-0.94L74.532,7.66
		c0.038-0.196,0.061-0.397,0.061-0.604c0-1.727-1.4-3.126-3.126-3.126c-1.727,0-3.126,1.4-3.126,3.126
		c0,0.256,0.039,0.5,0.097,0.738L23.735,35.497h-1.659c-3.124,0-5.657,2.809-5.657,6.275v61.983c0,3.465,2.533,6.275,5.657,6.275
		h97.238c3.124,0,5.657-2.809,5.657-6.275V74.946 M69.71,9.641c0.501,0.341,1.105,0.541,1.757,0.541c0.7,0,1.339-0.238,1.86-0.626
		l40.941,25.941H27.854L69.71,9.641z M70.694,106.557c-2.039,0-3.693-1.653-3.693-3.692s1.653-3.693,3.693-3.693
		c2.039,0,3.692,1.653,3.692,3.693C74.386,104.904,72.733,106.557,70.694,106.557z M21.391,96.038V41.484h98.606v54.554H21.391z"/>
</g>
<g>
	<path fill="#B25251" d="M-128.12,231.159c-1.284-0.018-2.51-0.057-3.677-0.115l-0.821-9.035l-0.158-1.734l-1.096-12.06
		c0-2.34-1.288-4.156-3.183-4.874c2.356-2.495,3.515-6.585,2.898-10.935c-2.346-16.537-9.264-19.885-14.465-19.894
		c-3.576-0.007-2.902,1.165-0.471,3.16c0.544,0.447,1.069,1.008,1.544,1.71c1.672,2.475-1.295,5.767-3.125,8.379
		c-1.761,2.513-2.562,6.064-1.925,9.792c0.756,4.427,3.341,7.951,6.527,9.464c-1.427,1.322-1.991,3.382-1.275,5.51l2.857,11.231
		l0.39,1.534l0.148,0.583c0.107,0.304,0.199,0.613,0.255,0.935c0.004,0.022-0.004,0.039-0.002,0.06l1.233,4.849
		c-4.611-1.042-6.905-2.459-6.905-3.61c0-0.851,1.251-1.706,3.742-2.424c-0.197-0.498-0.381-1-0.505-1.521
		c-3.635,0.988-5.61,2.212-5.879,3.652h-0.033v47.492l0,0c0.001,1.817,2.592,4.279,7.7,5.406c4.765,1.051,11.096,1.63,17.827,1.63
		c6.73,0,13.061-0.579,17.826-1.63c5.109-1.127,7.7-3.59,7.7-5.407c0-0.025-0.006-0.05-0.007-0.075v-46.996
		c0.001-0.025,0.007-0.049,0.007-0.074c0-0.025-0.006-0.05-0.007-0.075v-0.271h-0.026c-0.29-1.551-2.58-2.849-6.77-3.873
		c-0.22,0.559-0.465,1.108-0.695,1.663c2.798,0.779,4.157,1.728,4.157,2.644c0,1.213-2.322,2.673-7.253,3.687l2.043-6.604
		l0.518-1.675l3.8-12.285c0.833-2.171,0.633-4.287-0.357-5.59c2.437-1.522,4.303-5.036,5.797-9.166
		c4.718-13.045-0.118-19.852-2.424-23.31c-0.458-0.686-0.763-0.956-0.938-0.92c-0.386,0.078,0.353,7.57-5.128,12.517
		c-1.996,1.802-3.842,4.763-4.751,8.434c-1.079,4.36-0.635,8.496,0.92,10.97c-1.409,0.746-2.513,2.467-2.799,4.682l-2.514,13.483
		l-0.32,1.718l-1.63,8.746c-0.922,0.064-1.886,0.117-2.898,0.156l0.381-9.124l0.074-1.774l0.421-10.073
		c0.216-2.308-1.502-4.331-2.494-5.356c1.546-2.067,2.771-14.238,3.06-19.006l-9.518,0.495c0.165,3.458,1.768,16.657,3.407,18.68
		c-0.919,1.065-2.396,3.002-2.192,5.22l0.479,9.963l0.086,1.782L-128.12,231.159 M-122.135,256.113
		c-0.005-0.001-0.029-0.009-0.037-0.011C-122.163,256.104-122.14,256.112-122.135,256.113c0.017,0.004,0.061,0.017,0.127,0.03
		C-122.074,256.13-122.118,256.117-122.135,256.113z"/>
	<path fill="#FFFFFF" d="M-113.506,250.903c-0.996-2.083-2.559-3.893-4.522-5.235c-0.076-0.052-0.151-0.078-0.225-0.078
		c-0.144,0-0.289,0.109-0.289,0.353v4.38c0,0.242,0.141,0.572,0.321,0.75c1.306,1.3,2.291,3.064,2.773,4.969
		c0.35,1.385,0.424,2.797,0.224,4.171c0.059-1.511-0.184-3.029-0.59-3.892c-0.454-1.167-1.251-2.374-2.244-3.399
		c-0.081-0.083-0.163-0.125-0.244-0.125c-0.11,0-0.239,0.085-0.239,0.324v5.058c0,0.246,0.086,0.6,0.17,0.8
		c0.536,1.286,0.705,2.682,0.488,4.036c-0.221,1.38-0.84,2.689-1.792,3.787c-0.022,0.026-0.062,0.011-0.062-0.026
		c-0.004-0.756-0.02-21.423-0.02-21.631c0-0.269-0.19-0.56-0.433-0.663c-1.626-0.688-3.343-1.037-5.103-1.037
		c-0.656,0-1.316,0.05-1.961,0.149c-2.666,0.41-5.096,1.604-7.027,3.453c-1.931,1.848-3.24,4.233-3.787,6.895
		c-0.535,2.43-0.272,5.104,0.739,7.528c0.502,1.202,1.172,2.319,1.991,3.319c0.844,1.029,1.826,1.911,2.921,2.62
		c0.074,0.048,0.148,0.072,0.22,0.072c0.148,0,0.297-0.11,0.297-0.357v-1.476c0-0.223-0.075-0.575-0.171-0.801
		c-0.864-2.035-0.866-4.05-0.007-5.989c0.088-0.198,0.178-0.551,0.178-0.799v-5.13c0-0.24-0.13-0.326-0.242-0.326
		c-0.056,0-0.144,0.021-0.244,0.123c-0.765,0.771-1.809,2.058-2.442,3.815c-0.469,1.301-0.691,2.255-0.559,3.633
		c-0.089-0.416-0.078-0.44-0.106-0.855c-0.08-1.165,0.039-2.329,0.352-3.457c0.544-1.957,1.68-3.801,3.201-5.192l0.139-0.124
		c0.317-0.28,0.647-0.536,0.979-0.761c0.046-0.031,0.076-0.036,0.09-0.036c0.015,0,0.023,0.004,0.032,0.015
		c0.015,0.02,0.024,0.058,0.024,0.103c-0.001,2.222-0.006,15.55-0.007,18.022c0,0.271,0.201,0.548,0.457,0.63
		c0.84,0.27,2.901,0.906,3.887,0.973c0.011,0.001,0.023,0.001,0.034,0.001c0.129,0,0.25-0.05,0.341-0.141
		c0.094-0.094,0.145-0.219,0.145-0.354l-0.022-20.596c0-0.074,0.034-0.151,0.094-0.21c0.059-0.059,0.134-0.093,0.205-0.093h0.664
		c0.152,0,0.276,0.124,0.276,0.276v17.164l0.003,3.45c0,0.274,0.211,0.488,0.48,0.488l0,0c0.014,0,0.027,0,0.041-0.002
		c2.618-0.218,5.205-1.32,7.285-3.101c2.321-1.987,3.824-4.656,4.348-7.719C-112.011,255.894-112.368,253.285-113.506,250.903z"/>
	<path fill="#9E8671" d="M-104.982,203.324c-0.937-1.087-2.013-1.684-3.65-1.56c-1.188,0.09-2.351,0.325-3.531,0.452
		c0.017,0.027,0.029,0.06,0.046,0.087c-1.409,0.746-2.513,2.467-2.799,4.682l-2.514,13.483l-0.32,1.718l-1.63,8.746
		c-0.218,0.015,3.17-0.253,7.783-1l2.043-6.604l0.518-1.675l3.8-12.285c0.833-2.171,0.633-4.287-0.357-5.59
		C-105.383,203.649-105.183,203.484-104.982,203.324z"/>
	<path fill="#9E8671" d="M-131.82,231.048l-0.821-9.035l-0.158-1.734l-1.096-12.06c0-2.34-1.288-4.156-3.183-4.874
		c0.219-0.232,0.416-0.491,0.614-0.749c-3.32-1.078-7.415-0.053-9.962,2.238c0.112,0.059,0.217,0.134,0.331,0.187
		c-1.427,1.322-1.991,3.382-1.275,5.51l2.857,11.231l0.39,1.534l0.148,0.583c0.107,0.304,0.199,0.613,0.255,0.935
		c0.004,0.022-0.004,0.039-0.002,0.06l1.233,4.849C-139.379,230.363-131.683,231.055-131.82,231.048z"/>
	<path fill="#9E8671" d="M-123.771,204.528c-0.512-0.172-1.045-0.251-1.592-0.128c-0.554,0.125-1.088,0.313-1.617,0.515
		c-0.922,1.081-2.316,2.969-2.117,5.13l0.479,9.963l0.086,1.782l0.412,9.368c2.065,0.09,5.895-0.068,5.852-0.066l0.413-9.233
		l0.074-1.774l0.421-10.073c0.216-2.308-1.502-4.331-2.494-5.356C-123.826,204.619-123.798,204.572-123.771,204.528z"/>
	<g>
		<path fill="#282525" d="M-149.094,175.672c0.544,0.447,1.069,1.008,1.544,1.71c1.672,2.475-1.295,5.767-3.125,8.379
			c-1.761,2.513-2.562,6.064-1.925,9.792c0.756,4.427,3.341,7.951,6.527,9.464c-0.005,0.004-0.008,0.009-0.013,0.013
			c1.449,0.367,2.948,0.463,4.455,0.211c1.718-0.287,3.282-0.992,4.66-2.004c2.295-2.503,3.422-6.537,2.812-10.831
			c-2.346-16.537-9.264-19.885-14.465-19.894c-1.054-0.002-1.73,0.101-2.11,0.294c-0.03,0.017-0.062,0.031-0.092,0.048
			C-151.586,173.338-150.749,174.314-149.094,175.672z"/>
	</g>
	<g>
		<path fill="#282525" d="M-120.827,185.76l-9.518,0.495c0.165,3.458,1.768,16.657,3.407,18.68
			c-0.019,0.022,0.642,0.439,1.512,0.447c0.836,0.008,1.59-0.563,1.539-0.616C-122.341,202.699-121.116,190.528-120.827,185.76z"/>
	</g>
	<g>
		<path fill="#282525" d="M-99.787,194.617c4.718-13.045-0.118-19.852-2.424-23.31c-0.458-0.686-0.763-0.956-0.938-0.92
			c-0.386,0.078,0.353,7.57-5.128,12.517c-1.996,1.802-3.842,4.763-4.751,8.434c-1.062,4.29-0.643,8.355,0.852,10.842
			c0.699,0.534,1.464,0.953,2.306,1.214c1.642,0.508,3.38,0.39,5.106-0.221C-102.723,201.435-101.108,198.27-99.787,194.617z"/>
	</g>
</g>
<g>
	<g>
		<g id="XMLID_2_">
			<g>
				<path fill="#9E8671" d="M312.656,195.854l0.709-3.714c0.389-2.094,2.295-3.289,4.309-3.101c3.638,0.362,2.913,4.255,2.913,4.255
					h6.148v-32.859c0-2.121,1.638-3.839,3.651-3.839s3.651,1.718,3.651,3.839v32.859h6.148c0,0-0.591-3.584,2.913-4.255
					c1.987-0.376,3.919,1.007,4.309,3.101l0.703,3.682"/>
			</g>
		</g>
	</g>
</g>
<g>
	<g>
		<g id="XMLID_4_">
			<g>
				<path fill="#9E8671" d="M304.75,237.453l0.023-0.123 M356.015,237.447l4.663,24.595c0.403,2.094-0.886,4.094-2.872,4.47
					c-1.987,0.376-3.906-1.02-4.309-3.101l-4.121-21.718H311.39l-4.121,21.718c-0.403,2.081-2.322,3.476-4.309,3.101
					c-1.987-0.376-3.275-2.376-2.872-4.47l4.662-24.588 M355.993,237.33l0.022,0.116"/>
			</g>
		</g>
	</g>
</g>
<g>
	<rect x="-424.678" y="211.577" fill="#513724" width="38.686" height="0.1"/>
</g>
<g>
	<g>
		<path fill="none" d="M365.308,212.861c2.067,0,3.745,1.678,3.745,3.732c0,0,0,0,0-0.001c0-2.054-1.678-3.732-3.745-3.732
			c-2.054,0-3.732,1.678-3.732,3.732l0,0C361.578,214.538,363.255,212.861,365.308,212.861z"/>
		<path fill="none" d="M365.308,219.21c1.257,0,2.308-0.894,2.551-2.071C367.616,218.316,366.564,219.21,365.308,219.21z"/>
		<path fill="none" d="M365.308,214.028c-1.423,0-2.591,1.154-2.591,2.591C362.718,215.183,363.886,214.028,365.308,214.028z"/>
		<polygon fill="none" points="294.96,219.249 293.819,219.249 293.819,213.935 293.819,213.935 293.819,219.25 294.96,219.25 		"/>
		<path fill="#282525" d="M290.478,201.585v30.013c0,3.168,2.563,5.732,5.731,5.732h8.564h51.22h8.564
			c3.167,0,5.731-2.564,5.731-5.732v-30.013c0-3.166-2.563-5.73-5.727-5.731h-68.355
			C293.041,195.855,290.478,198.418,290.478,201.585z M361.576,216.592L361.576,216.592c0-2.054,1.678-3.732,3.732-3.732
			c2.067,0,3.745,1.678,3.745,3.732c0,0,0,0,0,0.001l0,0c0,2.067-1.678,3.745-3.745,3.745
			C363.254,220.338,361.576,218.66,361.576,216.592C361.576,216.593,361.576,216.592,361.576,216.592z M297.792,197.089h62.523
			v38.496h-62.523V197.089z M293.819,213.935L293.819,213.935L293.819,213.935l1.141-0.001v0.001v5.314v0.001h-1.141V213.935z"/>
		<path fill="#FFFFFF" d="M365.308,220.338c2.067,0,3.745-1.678,3.745-3.745l0,0c0-2.054-1.678-3.732-3.745-3.732
			c-2.053,0-3.73,1.677-3.732,3.731c0,0,0,0,0,0.001C361.576,218.66,363.254,220.338,365.308,220.338z M365.308,214.028
			c1.436,0,2.604,1.154,2.604,2.591c0,0.178-0.018,0.352-0.053,0.52c-0.243,1.177-1.294,2.071-2.551,2.071
			c-1.423,0-2.591-1.168-2.591-2.591C362.717,215.182,363.885,214.028,365.308,214.028z"/>
		<path fill="#282525" d="M365.308,219.21c1.257,0,2.308-0.894,2.551-2.071c0.035-0.168,0.053-0.342,0.053-0.52
			c0-1.437-1.168-2.591-2.604-2.591c-1.422,0-2.59,1.155-2.591,2.591C362.717,218.042,363.885,219.21,365.308,219.21z"/>
		<rect x="297.792" y="197.089" fill="#FFFFFF" width="62.523" height="38.496"/>
		<polygon fill="#FFFFFF" points="294.96,219.249 294.96,213.935 294.96,213.934 293.819,213.934 293.819,213.935 293.819,219.249 
					"/>
	</g>
	<path fill="#C6C6C6" d="M310.682,213.05h-6.264c-1.657,0-3-1.343-3-3v-6.264c0-1.657,1.343-3,3-3h6.264c1.657,0,3,1.343,3,3v6.264
		C313.682,211.707,312.338,213.05,310.682,213.05z"/>
	<path fill="#C6C6C6" d="M301.418,235.585v-15.446c0-1.657,1.343-3,3-3h48.575c1.657,0,3,1.343,3,3v15.446H301.418z"/>
	<path fill="#C6C6C6" d="M353.434,213.05h-33.176c-1.657,0-3-1.343-3-3v-6.264c0-1.657,1.343-3,3-3h33.176c1.657,0,3,1.343,3,3
		v6.264C356.434,211.707,355.091,213.05,353.434,213.05z"/>
</g>
<g>
	<g>
		<g id="XMLID_3_">
			<g>
				<path fill="#939598" d="M-192.4,221.407v30.013c0,3.168-2.564,5.732-5.731,5.732h-8.564l4.685,24.711
					c0.403,2.094-0.886,4.094-2.872,4.47c-1.987,0.376-3.906-1.02-4.309-3.101l-4.121-21.718h-37.986l-4.121,21.718
					c-0.403,2.081-2.322,3.476-4.309,3.101c-1.987-0.376-3.275-2.376-2.872-4.47l4.685-24.711h-8.564
					c-3.168,0-5.731-2.564-5.731-5.732v-30.013c0-3.168,2.564-5.731,5.731-5.731h16.429l0.725-3.799
					c0.389-2.094,2.295-3.289,4.309-3.101c3.638,0.362,2.913,4.255,2.913,4.255h6.148v-32.859c0-2.121,1.638-3.839,3.651-3.839
					s3.651,1.718,3.651,3.839v32.859h6.148c0,0-0.591-3.584,2.913-4.255c1.987-0.376,3.919,1.007,4.309,3.101l0.725,3.799h16.429
					C-194.964,215.676-192.4,218.24-192.4,221.407z M-193.635,236.414c0-2.054-1.678-3.732-3.745-3.732
					c-2.054,0-3.732,1.678-3.732,3.732c0,2.067,1.678,3.745,3.732,3.745C-195.312,240.159-193.635,238.481-193.635,236.414z
					 M-202.373,255.407v-38.496h-62.523v38.496H-202.373z M-267.728,239.072v-5.315h-1.141v5.315H-267.728z"/>
				<path fill="#FFFFFF" d="M-197.38,232.683c2.067,0,3.745,1.678,3.745,3.732c0,2.067-1.678,3.745-3.745,3.745
					c-2.054,0-3.732-1.678-3.732-3.745C-201.111,234.36-199.433,232.683-197.38,232.683z M-194.776,236.441
					c0-1.436-1.168-2.591-2.604-2.591c-1.423,0-2.591,1.154-2.591,2.591c0,1.423,1.168,2.591,2.591,2.591
					C-195.943,239.032-194.776,237.864-194.776,236.441z"/>
				<path fill="#939598" d="M-197.38,233.85c1.436,0,2.604,1.154,2.604,2.591c0,1.423-1.168,2.591-2.604,2.591
					c-1.423,0-2.591-1.168-2.591-2.591C-199.97,235.005-198.802,233.85-197.38,233.85z"/>
				<rect x="-264.896" y="216.911" fill="#FFFFFF" width="62.523" height="38.496"/>
				<rect x="-268.869" y="233.756" fill="#FFFFFF" width="1.141" height="5.315"/>
			</g>
		</g>
	</g>
</g>
<rect x="311.405" y="237.33" fill="#543D2D" width="38.004" height="2.06"/>
<rect x="326.733" y="193.201" fill="#543D2D" width="7.302" height="2.653"/>
<g>
	<g>
		<g>
			<g id="XMLID_7_">
				<g>
					<path fill="#9E8671" d="M-280.524,222.727v30.013c0,3.168-2.564,5.732-5.731,5.732h-8.564l4.685,24.711
						c0.403,2.094-0.886,4.094-2.872,4.47c-1.987,0.376-3.906-1.02-4.309-3.101l-4.121-21.718h-37.986l-4.121,21.718
						c-0.403,2.081-2.322,3.476-4.309,3.101c-1.987-0.376-3.275-2.376-2.872-4.47l4.685-24.711h-8.564
						c-3.168,0-5.731-2.564-5.731-5.732v-30.013c0-3.168,2.564-5.731,5.731-5.731h16.429l0.725-3.799
						c0.389-2.094,2.295-3.289,4.309-3.101c3.638,0.362,2.913,4.255,2.913,4.255h6.148v-32.859c0-2.121,1.638-3.839,3.651-3.839
						s3.651,1.718,3.651,3.839v32.859h6.148c0,0-0.591-3.584,2.913-4.255c1.987-0.376,3.919,1.007,4.309,3.101l0.725,3.799h16.429
						C-283.088,216.996-280.524,219.56-280.524,222.727z M-281.759,237.734c0-2.054-1.678-3.732-3.745-3.732
						c-2.054,0-3.732,1.678-3.732,3.732c0,2.067,1.678,3.745,3.732,3.745C-283.436,241.479-281.759,239.801-281.759,237.734z
						 M-290.497,256.727v-38.496h-62.523v38.496H-290.497z M-355.852,240.392v-5.315h-1.141v5.315H-355.852z"/>
					<path fill="#9E8671" d="M-285.504,234.003c2.067,0,3.745,1.678,3.745,3.732c0,2.067-1.678,3.745-3.745,3.745
						c-2.054,0-3.732-1.678-3.732-3.745C-289.235,235.68-287.557,234.003-285.504,234.003z M-282.9,237.761
						c0-1.436-1.168-2.591-2.604-2.591c-1.423,0-2.591,1.154-2.591,2.591c0,1.423,1.168,2.591,2.591,2.591
						C-284.067,240.352-282.9,239.184-282.9,237.761z"/>
					<path fill="#9E8671" d="M-285.504,235.17c1.436,0,2.604,1.154,2.604,2.591c0,1.423-1.168,2.591-2.604,2.591
						c-1.423,0-2.591-1.168-2.591-2.591C-288.094,236.325-286.926,235.17-285.504,235.17z"/>
					<rect x="-353.02" y="218.231" fill="#9E8671" width="62.523" height="38.496"/>
					<rect x="-356.993" y="235.076" fill="#9E8671" width="1.141" height="5.315"/>
				</g>
			</g>
		</g>
	</g>
	<g>
		<g>
			<g id="XMLID_6_">
				<g>
					<path fill="#9E8671" d="M-338.156,216.995l0.709-3.714c0.389-2.094,2.295-3.289,4.309-3.101
						c3.638,0.362,2.913,4.255,2.913,4.255h6.148v-32.859c0-2.121,1.638-3.839,3.651-3.839s3.651,1.718,3.651,3.839v32.859h6.148
						c0,0-0.591-3.584,2.913-4.255c1.987-0.376,3.919,1.007,4.309,3.101l0.703,3.682"/>
				</g>
			</g>
		</g>
	</g>
	<g>
		<g>
			<g id="XMLID_5_">
				<g>
					<path fill="#9E8671" d="M-346.063,258.595l0.023-0.123 M-294.797,258.588l4.663,24.595c0.403,2.094-0.886,4.094-2.872,4.47
						c-1.987,0.376-3.906-1.02-4.309-3.101l-4.121-21.718h-37.986l-4.121,21.718c-0.403,2.081-2.322,3.476-4.309,3.101
						c-1.987-0.376-3.275-2.376-2.872-4.47l4.662-24.588 M-294.819,258.472l0.022,0.116"/>
				</g>
			</g>
		</g>
	</g>
	<g>
		<g>
			<path fill="none" d="M-285.504,234.002c2.067,0,3.745,1.678,3.745,3.732c0,0,0,0,0-0.001c0-2.054-1.678-3.732-3.745-3.732
				c-2.054,0-3.732,1.678-3.732,3.732l0,0C-289.235,235.679-287.557,234.002-285.504,234.002z"/>
			<path fill="none" d="M-285.504,240.351c1.257,0,2.308-0.894,2.551-2.071C-283.197,239.457-284.248,240.351-285.504,240.351z"/>
			<path fill="none" d="M-285.504,235.169c-1.423,0-2.591,1.154-2.591,2.591C-288.094,236.324-286.926,235.169-285.504,235.169z"/>
			<polygon fill="none" points="-355.852,240.39 -356.993,240.39 -356.993,235.076 -356.993,235.076 -356.993,240.391 
				-355.852,240.391 			"/>
			<path fill="#282525" d="M-360.334,222.726v30.013c0,3.168,2.563,5.732,5.731,5.732h8.564h51.22h8.564
				c3.167,0,5.731-2.564,5.731-5.732v-30.013c0-3.166-2.563-5.73-5.727-5.731h-68.355
				C-357.772,216.997-360.334,219.559-360.334,222.726z M-289.236,237.733L-289.236,237.733c0-2.054,1.678-3.732,3.732-3.732
				c2.067,0,3.745,1.678,3.745,3.732c0,0,0,0,0,0.001l0,0c0,2.067-1.678,3.745-3.745,3.745
				C-287.558,241.479-289.236,239.801-289.236,237.733C-289.236,237.734-289.236,237.734-289.236,237.733z M-353.02,218.23h62.523
				v38.496h-62.523V218.23z M-356.993,235.076L-356.993,235.076L-356.993,235.076l1.141-0.001v0.001v5.314v0.001h-1.141V235.076z"/>
			<path fill="#FFFFFF" d="M-285.504,241.479c2.067,0,3.745-1.678,3.745-3.745l0,0c0-2.054-1.678-3.732-3.745-3.732
				c-2.053,0-3.73,1.677-3.732,3.731c0,0,0,0,0,0.001C-289.236,239.801-287.558,241.479-285.504,241.479z M-285.504,235.169
				c1.436,0,2.604,1.154,2.604,2.591c0,0.178-0.018,0.352-0.053,0.52c-0.243,1.177-1.294,2.071-2.551,2.071
				c-1.423,0-2.591-1.168-2.591-2.591C-288.095,236.323-286.927,235.169-285.504,235.169z"/>
			<path fill="#282525" d="M-285.504,240.351c1.257,0,2.308-0.894,2.551-2.071c0.035-0.168,0.053-0.342,0.053-0.52
				c0-1.437-1.168-2.591-2.604-2.591c-1.422,0-2.59,1.155-2.591,2.591C-288.095,239.183-286.927,240.351-285.504,240.351z"/>
			<rect x="-353.02" y="218.23" fill="#FFFFFF" width="62.523" height="38.496"/>
			<polygon fill="#FFFFFF" points="-355.852,240.39 -355.852,235.076 -355.852,235.075 -356.993,235.075 -356.993,235.076 
				-356.993,240.39 			"/>
		</g>
		<path fill="#C6C6C6" d="M-340.131,234.191h-6.264c-1.657,0-3-1.343-3-3v-6.264c0-1.657,1.343-3,3-3h6.264c1.657,0,3,1.343,3,3
			v6.264C-337.131,232.848-338.474,234.191-340.131,234.191z"/>
		<path fill="#C6C6C6" d="M-349.395,256.726V241.28c0-1.657,1.343-3,3-3h48.575c1.657,0,3,1.343,3,3v15.446H-349.395z"/>
		<path fill="#C6C6C6" d="M-297.378,234.191h-33.176c-1.657,0-3-1.343-3-3v-6.264c0-1.657,1.343-3,3-3h33.176c1.657,0,3,1.343,3,3
			v6.264C-294.378,232.848-295.721,234.191-297.378,234.191z"/>
	</g>
	<rect x="-339.407" y="258.471" fill="#543D2D" width="38.004" height="2.06"/>
	<rect x="-324.079" y="214.343" fill="#543D2D" width="7.302" height="2.653"/>
</g>
</svg>
