<?xml version="1.0" encoding="utf-8"?>
<!-- Generator: Adobe Illustrator 17.0.1, SVG Export Plug-In . SVG Version: 6.00 Build 0)  -->
<!DOCTYPE svg PUBLIC "-//W3C//DTD SVG 1.1//EN" "http://www.w3.org/Graphics/SVG/1.1/DTD/svg11.dtd">
<svg version="1.1" id="Layer_1" xmlns="http://www.w3.org/2000/svg" xmlns:xlink="http://www.w3.org/1999/xlink" x="0px" y="0px"
	 width="300px" height="240px" viewBox="0 0 300 240" enable-background="new 0 0 300 240" xml:space="preserve">
<g>
	<path fill="#FFFFFF" stroke="#D1A75E" stroke-miterlimit="10" d="M-89.249,57.448c-0.076-0.052-0.151-0.078-0.225-0.078
		c-0.144,0-0.289,0.109-0.289,0.353v4.38c0,0.242,0.141,0.572,0.321,0.75c1.306,1.3,2.291,3.064,2.773,4.969
		c0.35,1.385,0.424,2.797,0.224,4.171c0.059-1.511-0.184-3.029-0.59-3.892c-0.454-1.167-1.251-2.374-2.244-3.399
		c-0.081-0.083-0.163-0.125-0.244-0.125c-0.11,0-0.239,0.085-0.239,0.324v5.058c0,0.246,0.086,0.6,0.17,0.8
		c0.536,1.286,0.705,2.682,0.488,4.036c-0.221,1.38-0.84,2.689-1.792,3.787c-0.022,0.026-0.062,0.011-0.062-0.026
		c-0.004-0.756-0.02-21.423-0.02-21.631c0-0.269-0.19-0.56-0.433-0.663c-1.626-0.688-3.343-1.037-5.103-1.037
		c-0.656,0-1.316,0.05-1.961,0.149c-2.666,0.41-5.096,1.604-7.027,3.453c-1.931,1.848-3.24,4.233-3.787,6.895
		c-0.535,2.43-0.272,5.104,0.739,7.528c0.502,1.202,1.172,2.319,1.991,3.319c0.844,1.029,1.826,1.911,2.921,2.62
		c0.074,0.048,0.148,0.072,0.22,0.072c0.148,0,0.297-0.11,0.297-0.357v-1.476c0-0.223-0.075-0.575-0.171-0.801
		c-0.864-2.035-0.866-4.05-0.007-5.989c0.088-0.198,0.178-0.551,0.178-0.799v-5.13c0-0.24-0.13-0.326-0.242-0.326
		c-0.056,0-0.144,0.021-0.244,0.123c-0.765,0.771-1.809,2.058-2.442,3.815c-0.469,1.301-0.691,2.255-0.559,3.633
		c-0.089-0.416-0.078-0.44-0.106-0.855c-0.08-1.165,0.039-2.329,0.352-3.457c0.544-1.957,1.68-3.801,3.201-5.192l0.139-0.124
		c0.317-0.28,0.647-0.536,0.979-0.761c0.046-0.031,0.076-0.036,0.09-0.036c0.015,0,0.023,0.004,0.032,0.015
		c0.015,0.02,0.024,0.058,0.024,0.103c-0.001,2.222-0.006,15.55-0.007,18.022c0,0.271,0.201,0.548,0.457,0.63
		c0.84,0.27,2.901,0.906,3.887,0.973c0.011,0.001,0.023,0.001,0.034,0.001c0.129,0,0.25-0.05,0.341-0.141
		c0.094-0.094,0.145-0.219,0.145-0.354l-0.022-20.596c0-0.074,0.034-0.151,0.094-0.21c0.059-0.059,0.134-0.093,0.205-0.093h0.664
		c0.152,0,0.276,0.124,0.276,0.276v17.164l0.003,3.45c0,0.274,0.211,0.488,0.48,0.488c0.014,0,0.027,0,0.041-0.002
		c2.618-0.218,5.205-1.32,7.285-3.101c2.321-1.987,3.824-4.656,4.348-7.719c0.434-2.761,0.077-5.37-1.061-7.752
		C-85.723,60.6-87.286,58.79-89.249,57.448z"/>
	<path fill="#FCD260" stroke="#D1A75E" stroke-miterlimit="10" d="M-80.097,96.016c18.03-2.314,32.158-23.286,32.158-48.84h-15.903
		c0.179-2.777,0.302-5.588,0.302-8.463h-65.544c0,2.874,0.121,5.684,0.299,8.463h-16.322c0,25.757,14.357,46.843,32.602,48.872
		c1.21,1.386,2.459,2.64,3.757,3.713h-0.675c0,0,0,1.477,0,3.3s1.467,3.3,3.277,3.3h3.277v16.5c0,0-1.467,0-3.277,0
		c-1.81,0-3.277,1.478-3.277,3.3v3.3c0,0-1.467,0-3.278,0s-3.278,1.518-3.278,3.39v6.421c0,1.872,1.518,3.39,3.39,3.39h32.549
		c1.872,0,3.39-1.518,3.39-3.39v-6.422c0-1.872-1.467-3.39-3.278-3.39h-3.278c0,0,0-1.478,0-3.3c0-1.823-1.467-3.3-3.277-3.3h-3.277
		v-16.499c0,0,1.467,0,3.277,0s3.277-1.477,3.277-3.3v-3.3h-0.676C-82.571,98.678-81.313,97.414-80.097,96.016z M-64.432,53.774
		h9.589c-1.682,15.789-9.322,28.685-19.413,33.651C-69.452,78.598-65.965,66.961-64.432,53.774z M-138.204,53.774h10.007
		c1.55,13.322,5.096,25.062,9.977,33.921C-128.592,82.942-136.488,69.855-138.204,53.774z"/>
</g>
<path fill="#FFFFFF" d="M-79.255,60.101c-1.458-3.049-3.746-5.699-6.619-7.663c-0.111-0.076-0.221-0.114-0.329-0.114
	c-0.211,0-0.423,0.16-0.423,0.517v6.411c0,0.354,0.206,0.837,0.47,1.098c1.912,1.903,3.354,4.485,4.059,7.274
	c0.512,2.027,0.621,4.094,0.328,6.105c0.086-2.212-0.269-4.434-0.864-5.697c-0.665-1.708-1.831-3.475-3.285-4.975
	c-0.119-0.121-0.239-0.183-0.357-0.183c-0.161,0-0.35,0.124-0.35,0.474v7.404c0,0.36,0.126,0.878,0.249,1.171
	c0.785,1.882,1.032,3.926,0.714,5.908c-0.324,2.02-1.23,3.936-2.623,5.543c-0.032,0.038-0.091,0.016-0.091-0.038
	c-0.006-1.107-0.029-31.359-0.029-31.663c0-0.394-0.278-0.82-0.634-0.97c-2.38-1.007-4.893-1.518-7.47-1.518
	c-0.96,0-1.926,0.073-2.871,0.218c-3.902,0.6-7.46,2.348-10.286,5.055c-2.827,2.705-4.743,6.196-5.543,10.093
	c-0.783,3.557-0.398,7.471,1.082,11.019c0.735,1.759,1.716,3.395,2.914,4.858c1.235,1.506,2.673,2.797,4.276,3.835
	c0.108,0.07,0.217,0.105,0.322,0.105c0.217,0,0.435-0.161,0.435-0.523v-2.161c0-0.326-0.11-0.842-0.25-1.173
	c-1.265-2.979-1.268-5.928-0.01-8.767c0.129-0.29,0.261-0.807,0.261-1.17v-7.509c0-0.351-0.19-0.477-0.354-0.477
	c-0.082,0-0.211,0.031-0.357,0.18c-1.12,1.129-2.648,3.012-3.575,5.584c-0.687,1.904-1.011,3.301-0.818,5.318
	c-0.13-0.609-0.114-0.644-0.155-1.252c-0.117-1.705,0.057-3.409,0.515-5.06c0.796-2.865,2.459-5.564,4.686-7.6l0.203-0.181
	c0.464-0.41,0.947-0.785,1.433-1.114c0.067-0.045,0.111-0.053,0.132-0.053c0.022,0,0.034,0.006,0.047,0.022
	c0.022,0.029,0.035,0.085,0.035,0.151c-0.001,3.253-0.009,22.762-0.01,26.381c0,0.397,0.294,0.802,0.669,0.922
	c1.23,0.395,4.246,1.326,5.69,1.424c0.016,0.001,0.034,0.001,0.05,0.001c0.189,0,0.366-0.073,0.499-0.206
	c0.138-0.138,0.212-0.321,0.212-0.518l-0.032-30.148c0-0.108,0.05-0.221,0.138-0.307c0.086-0.086,0.196-0.136,0.3-0.136h0.972
	c0.222,0,0.404,0.181,0.404,0.404v25.125l0.004,5.05c0,0.401,0.309,0.714,0.703,0.714l0,0c0.02,0,0.04,0,0.06-0.003
	c3.832-0.319,7.619-1.932,10.664-4.539c3.397-2.909,5.598-6.815,6.365-11.299C-77.067,67.407-77.59,63.588-79.255,60.101z"/>
<rect x="617.027" y="177.794" fill="#282525" width="208.219" height="5.655"/>
<g>
	<path fill="#282525" d="M847.827,72.08c0-7.766-5.675-14.059-12.675-14.059h-2.106h-9.197h-78.807H630.238h-9.229h-3.717
		c-6.999,0-12.674,6.294-12.674,14.059l0.136,124.659c0.005,4.361,3.544,7.896,7.905,7.896H718.96h14.241h106.591
		c4.361,0,7.923-3.535,7.956-7.896l0.081-10.77v-39.563l-0.002-1.938V72.08z M837.699,194.758H614.748V67.794h222.952V194.758z"/>
	<rect x="614.748" y="67.794" fill="#D6D6D6" width="222.952" height="126.965"/>
</g>
<path opacity="0.3" fill="#FFFFFF" d="M847.827,144.468V72.08c0-7.766-5.675-14.059-12.675-14.059h-2.106h-9.197h-78.807
	l10.776,13.414h0l80.869,100.665l11.142,13.87v-39.563L847.827,144.468z"/>
<path fill="#FFFFFF" d="M564.804,143.331"/>
<g>
	<path fill="#D88687" d="M703.171,161.719c-0.486-0.355-0.964-0.72-1.434-1.096c-1.557-1.248-2.444-3.353-2.111-5.006
		c0.078-0.387,0.117-0.786,0.117-1.187c0-1.572-0.895-3.023-2.087-4.103l-11.665,8.678l10.319,2.707v10.996l11.804-10.347
		C706.329,162.828,704.422,162.633,703.171,161.719z"/>
	<path fill="#D88687" d="M753.428,153.578c-3.303,0-5.991,2.688-5.991,5.991c0,0.328,0.03,0.665,0.087,1.002
		c0.287,1.635-0.921,3.541-2.872,4.529c-0.381,0.193-0.765,0.379-1.153,0.56c0,0-0.001,0-0.001,0l5.243,7.048l2.707-10.319h10.996
		l-7.578-8.646c-0.034-0.007-0.071-0.004-0.104-0.012C754.325,153.629,753.877,153.578,753.428,153.578z"/>
	<path fill="#D88687" d="M762.152,129.943c-0.283-0.222-0.607-0.474-0.955-0.768c-2.227-1.872-3.504-4.612-3.504-7.517
		c0-1.614,0.402-3.216,1.162-4.631c0.553-1.03,0.68-2.132,0.481-2.564c-0.167-0.361-0.34-0.719-0.519-1.074
		c-0.276-0.547-1.386-1.289-2.581-1.726c-3.858-1.409-6.45-5.115-6.45-9.221c0-0.13,0.002-0.26,0.007-0.389
		c-0.148-0.159-0.454-0.443-1.08-0.929c-0.569-0.443-1.153-0.868-1.748-1.276c-0.383-0.261-1.55-0.202-2.399,0.152
		c-1.195,0.499-2.463,0.753-3.766,0.753c-3.689,0-7.032-2.038-8.724-5.32c-0.484-0.941-1.292-1.621-1.741-1.667
		c-0.328-0.034-0.657-0.062-0.987-0.087c0,0-0.001,0-0.003,0c-0.664,0-1.726,0.579-2.528,1.347
		c-1.837,1.759-4.249,2.728-6.793,2.728c-1.487,0-2.917-0.326-4.25-0.97c-0.744-0.358-1.608-0.581-2.256-0.581
		c-0.313,0-0.487,0.052-0.563,0.083c-0.57,0.235-1.135,0.485-1.693,0.748c-0.578,0.274-1.42,1.355-2.044,2.628
		c-1.664,3.393-5.042,5.5-8.815,5.5c-0.013,0-0.026,0-0.039,0c-0.258,0.205-0.681,0.584-1.127,1.109
		c-0.635,0.746-1.244,1.524-1.812,2.314c-0.495,0.689-0.602,1.788-0.519,2.16c0.157,0.7,0.236,1.416,0.236,2.128
		c0,3.103-1.422,5.958-3.903,7.832c-1.022,0.773-1.876,1.813-1.985,2.419c-0.172,0.964-0.308,1.95-0.402,2.932
		c-0.057,0.597,0.504,1.788,1.277,2.711c1.474,1.761,2.286,3.995,2.286,6.291c0,1.456-0.313,2.857-0.929,4.165
		c-0.571,1.212-0.723,2.442-0.54,2.93c0.179,0.48,0.368,0.952,0.565,1.419c0.189,0.447,0.391,0.809,0.55,1.06
		c4.407,0.315,9.521,4.705,9.521,9.798c0,0.654-0.065,1.308-0.193,1.945c-0.003,0.152,0.205,0.819,0.75,1.256
		c0.424,0.34,0.857,0.67,1.297,0.991c0.364,0.266,1.445,0.207,2.249-0.146c1.246-0.548,2.57-0.825,3.936-0.825
		c3.943,0,7.49,2.346,9.036,5.976c0.392,0.921,1.111,1.595,1.537,1.649c0.527,0.065,1.057,0.119,1.59,0.161l0.035,0.001
		c0.402,0,1.133-0.487,1.613-1.272c1.8-2.95,4.933-4.711,8.382-4.711c2.202,0,4.364,0.751,6.088,2.117
		c0.507,0.401,1.175,0.669,1.661,0.669c0.09,0,0.217-0.009,0.317-0.056c0.352-0.164,0.699-0.332,1.042-0.506
		c0.433-0.22,0.692-0.523,0.79-0.685c-0.071-0.478-0.107-0.955-0.107-1.426c0-5.418,4.408-9.825,9.825-9.825
		c0.742,0,1.483,0.085,2.206,0.253c0.001,0,0.003,0,0.004,0c0.3,0,0.796-0.196,1.082-0.629c0.165-0.248,0.327-0.501,0.487-0.754
		c0.308-0.493,0.306-1.709-0.009-2.708c-0.3-0.951-0.451-1.94-0.451-2.94c0-3.119,1.505-6.083,4.028-7.928
		c1.016-0.743,1.693-1.738,1.738-2.234c0.087-0.967,0.12-1.962,0.102-2.492C762.479,130.199,762.304,130.062,762.152,129.943z
		 M731.784,133.197c-0.374,0.43-0.76,0.819-1.164,1.151h0.208v1.015c0,0.56-0.451,1.015-1.008,1.015c-0.557,0-1.008,0-1.008,0v5.073
		h1.008c0.557,0,1.008,0.454,1.008,1.015c0,0.56,0,1.015,0,1.015h1.008c0.557,0,1.008,0.467,1.008,1.042v1.975
		c0,0.576-0.467,1.042-1.042,1.042h-10.009c-0.576,0-1.042-0.467-1.042-1.042v-1.974c0-0.576,0.451-1.042,1.008-1.042
		c0.557,0,1.008,0,1.008,0v-1.015c0-0.56,0.451-1.015,1.008-1.015s1.008,0,1.008,0v-5.074h-1.008c-0.556,0-1.008-0.454-1.008-1.015
		c0-0.56,0-1.015,0-1.015h0.207c-0.399-0.33-0.783-0.715-1.155-1.142c-5.143-0.572-9.282-6.069-9.935-13.082
		c-0.1-1.072,0.783-1.946,1.859-1.946h3.07c-0.028-0.431-0.051-0.864-0.067-1.3c-0.027-0.719,0.847-1.302,1.924-1.302h16.256
		c1.076,0,1.951,0.583,1.924,1.302c-0.016,0.437-0.04,0.87-0.067,1.3h2.941c1.076,0,1.959,0.874,1.859,1.946
		C740.935,127.078,736.863,132.545,731.784,133.197z"/>
	<path fill="#D88687" d="M733.58,130.555c3.103-1.527,5.452-5.492,5.969-10.347h-2.949
		C736.129,124.263,735.057,127.841,733.58,130.555z"/>
	<path fill="#D88687" d="M713.917,120.208c0.527,4.945,2.956,8.969,6.145,10.43c-1.501-2.724-2.591-6.334-3.068-10.43H713.917z"/>
	<path fill="#FFFFFF" d="M766.239,128.839c-0.292-0.796-0.924-1.291-1.724-1.917c-0.253-0.198-0.541-0.423-0.851-0.683
		c-1.357-1.142-2.136-2.812-2.136-4.582c0-0.997,0.237-1.945,0.705-2.816c0.871-1.621,1.483-4.046,0.583-5.989
		c-0.185-0.401-0.377-0.797-0.574-1.19c-1.084-2.148-3.865-3.3-4.691-3.602c-2.352-0.858-3.931-3.116-3.931-5.619
		c0-0.143,0.004-0.285,0.019-0.422c0.186-1.783-1.475-3.072-2.574-3.925c-0.629-0.489-1.273-0.959-1.932-1.41
		c-1.514-1.038-3.975-1.085-6.043-0.224c-0.725,0.303-1.495,0.457-2.289,0.457c-2.247,0-4.284-1.243-5.316-3.244
		c-0.851-1.652-2.549-3.498-4.758-3.724c-0.365-0.037-0.73-0.07-1.095-0.097c-2.505-0.17-4.848,1.81-5.466,2.402
		c-1.774,1.698-4.528,2.133-6.726,1.074c-0.599-0.289-2.181-0.962-3.921-0.962c-0.743,0-1.423,0.125-2.022,0.371
		c-0.632,0.26-1.255,0.536-1.873,0.828c-1.912,0.906-3.231,3.15-3.847,4.407c-1.015,2.068-3.073,3.354-5.372,3.354
		c-0.117,0-0.232-0.005-0.344-0.012l-0.141-0.005c-1.238,0-2.643,1.348-3.603,2.477c-0.702,0.823-1.376,1.685-2.005,2.56
		c-1.163,1.617-1.457,3.859-1.148,5.237c0.095,0.424,0.143,0.858,0.143,1.29c0,1.89-0.868,3.629-2.38,4.773
		c-0.702,0.531-3.023,2.444-3.448,4.8c-0.191,1.067-0.341,2.158-0.445,3.244c-0.236,2.47,1.59,4.863,2.154,5.537
		c0.897,1.072,1.391,2.432,1.391,3.83c0,0.886-0.19,1.736-0.564,2.53c-0.376,0.798-1.534,3.582-0.664,5.906
		c0.198,0.532,0.408,1.056,0.628,1.574c0.951,2.244,2.055,3.384,3.402,3.384c0.003,0,0.004,0,0.006,0l0.172-0.005
		c1.23,0,2.832,0.73,4.098,1.879c1.191,1.08,2.087,2.53,2.087,4.103c0,0.401-0.039,0.8-0.117,1.187
		c-0.333,1.653,0.554,3.757,2.111,5.006c0.47,0.376,0.948,0.741,1.434,1.096c1.25,0.914,3.158,1.108,4.944,0.642
		c0.378-0.099,0.752-0.216,1.111-0.375c0.755-0.332,1.56-0.501,2.391-0.501c2.403,0,4.565,1.431,5.507,3.643
		c0.702,1.648,2.324,3.671,4.594,3.952c0.582,0.072,1.167,0.131,1.759,0.178c0.112,0.009,0.226,0.014,0.338,0.014
		c2.206,0,4.011-1.675,4.886-3.109c1.099-1.799,3.008-2.874,5.109-2.874c1.361,0,2.643,0.446,3.709,1.289
		c1.816,1.434,4.227,1.896,5.978,1.081c0,0,0.001,0,0.001,0c0.388-0.181,0.773-0.367,1.153-0.56
		c1.951-0.987,3.159-2.894,2.872-4.529c-0.057-0.337-0.087-0.674-0.087-1.002c0-3.303,2.688-5.991,5.991-5.991
		c0.449,0,0.898,0.051,1.333,0.154c0.033,0.008,0.07,0.005,0.104,0.012c0.26,0.053,0.527,0.09,0.804,0.09
		c1.639,0,3.308-0.922,4.252-2.352c0.18-0.272,0.357-0.547,0.536-0.83c1.106-1.77,0.931-4.207,0.399-5.896
		c-0.181-0.578-0.273-1.18-0.273-1.789c0-1.929,0.896-3.691,2.458-4.833c1.472-1.077,3.109-2.952,3.293-4.986
		C766.466,131.663,766.558,129.712,766.239,128.839z M762.513,132.803c-0.045,0.496-0.721,1.492-1.738,2.234
		c-2.523,1.846-4.028,4.809-4.028,7.928c0,1,0.151,1.989,0.451,2.94c0.315,0.999,0.317,2.214,0.009,2.708
		c-0.16,0.253-0.322,0.506-0.487,0.754c-0.286,0.433-0.783,0.629-1.082,0.629c-0.001,0-0.002,0-0.004,0
		c-0.723-0.169-1.464-0.253-2.206-0.253c-5.418,0-9.825,4.408-9.825,9.825c0,0.471,0.036,0.947,0.107,1.426
		c-0.099,0.162-0.357,0.466-0.79,0.685c-0.343,0.174-0.69,0.342-1.042,0.506c-0.1,0.047-0.227,0.056-0.317,0.056
		c-0.487,0-1.155-0.268-1.661-0.669c-1.724-1.366-3.886-2.117-6.088-2.117c-3.449,0-6.582,1.761-8.382,4.711
		c-0.479,0.785-1.211,1.272-1.613,1.272l-0.035-0.001c-0.533-0.042-1.064-0.096-1.59-0.161c-0.426-0.054-1.145-0.728-1.537-1.649
		c-1.547-3.63-5.093-5.976-9.036-5.976c-1.366,0-2.69,0.277-3.936,0.825c-0.804,0.353-1.885,0.412-2.249,0.146
		c-0.44-0.321-0.873-0.652-1.297-0.991c-0.544-0.437-0.753-1.103-0.75-1.256c0.128-0.637,0.193-1.291,0.193-1.945
		c0-5.093-5.114-9.483-9.521-9.798c-0.159-0.251-0.361-0.613-0.55-1.06c-0.198-0.467-0.386-0.939-0.565-1.419
		c-0.183-0.488-0.031-1.718,0.54-2.93c0.617-1.308,0.929-2.709,0.929-4.165c0-2.296-0.811-4.531-2.286-6.291
		c-0.773-0.923-1.334-2.114-1.277-2.711c0.094-0.982,0.23-1.968,0.402-2.932c0.109-0.606,0.963-1.646,1.985-2.419
		c2.481-1.874,3.903-4.729,3.903-7.832c0-0.713-0.079-1.429-0.236-2.128c-0.083-0.372,0.024-1.471,0.519-2.16
		c0.569-0.791,1.178-1.568,1.812-2.314c0.446-0.526,0.869-0.904,1.127-1.109c0.013,0,0.026,0,0.039,0c3.773,0,7.151-2.107,8.815-5.5
		c0.624-1.273,1.466-2.354,2.044-2.628c0.558-0.263,1.122-0.513,1.693-0.748c0.076-0.031,0.25-0.083,0.563-0.083
		c0.648,0,1.512,0.223,2.256,0.581c1.333,0.643,2.764,0.97,4.25,0.97c2.544,0,4.956-0.969,6.793-2.728
		c0.801-0.768,1.864-1.347,2.528-1.347c0.001,0,0.003,0,0.003,0c0.331,0.024,0.659,0.053,0.987,0.087
		c0.449,0.046,1.257,0.727,1.741,1.667c1.693,3.282,5.036,5.32,8.724,5.32c1.303,0,2.571-0.253,3.766-0.753
		c0.849-0.353,2.016-0.413,2.399-0.152c0.594,0.408,1.178,0.833,1.748,1.276c0.625,0.486,0.931,0.77,1.08,0.929
		c-0.005,0.129-0.007,0.259-0.007,0.389c0,4.106,2.591,7.812,6.45,9.221c1.196,0.436,2.306,1.178,2.581,1.726
		c0.18,0.355,0.352,0.712,0.519,1.074c0.2,0.432,0.072,1.534-0.481,2.564c-0.76,1.416-1.162,3.017-1.162,4.631
		c0,2.905,1.277,5.645,3.504,7.517c0.348,0.293,0.672,0.546,0.955,0.768c0.152,0.119,0.327,0.256,0.463,0.368
		C762.632,130.841,762.6,131.836,762.513,132.803z"/>
	<path fill="#B3524B" d="M739.723,118.179h-2.941c0.028-0.43,0.051-0.863,0.067-1.3c0.027-0.719-0.847-1.302-1.924-1.302h-16.256
		c-1.076,0-1.951,0.583-1.924,1.302c0.016,0.437,0.039,0.87,0.067,1.3h-3.07c-1.076,0-1.959,0.874-1.859,1.946
		c0.653,7.013,4.792,12.51,9.935,13.082c0.372,0.426,0.756,0.812,1.155,1.142h-0.207c0,0,0,0.454,0,1.015
		c0,0.56,0.451,1.015,1.008,1.015h1.008v5.074c0,0-0.451,0-1.008,0s-1.008,0.454-1.008,1.015v1.015c0,0-0.451,0-1.008,0
		c-0.557,0-1.008,0.467-1.008,1.042v1.974c0,0.576,0.467,1.042,1.042,1.042h10.009c0.576,0,1.042-0.467,1.042-1.042v-1.975
		c0-0.576-0.451-1.042-1.008-1.042h-1.008c0,0,0-0.454,0-1.015c0-0.56-0.451-1.015-1.008-1.015h-1.008v-5.073c0,0,0.451,0,1.008,0
		c0.557,0,1.008-0.454,1.008-1.015v-1.015h-0.208c0.403-0.333,0.79-0.721,1.164-1.151c5.079-0.652,9.151-6.118,9.798-13.072
		C741.682,119.053,740.8,118.179,739.723,118.179z M713.917,120.208h3.077c0.477,4.096,1.567,7.707,3.068,10.43
		C716.872,129.177,714.444,125.152,713.917,120.208z M733.58,130.555c1.477-2.714,2.549-6.292,3.021-10.347h2.949
		C739.032,125.063,736.683,129.028,733.58,130.555z"/>
</g>
<g>
	<path fill="#E2E2E2" d="M739.541,204.634c0,0,0.806,29.257,10.887,29.257h-55.612c10.081,0,10.887-29.257,10.887-29.257H739.541z"
		/>
	<path opacity="0.4" fill="#424143" enable-background="new    " d="M764.384,233.073c-5.047-0.335-76.714,0.247-76.714,0.247
		c-0.271,0-0.529-0.053-0.763-0.148c-1.091,0.108-1.679,0.222-1.679,0.34c0,0.662,18.354,1.198,40.996,1.198
		c22.641,0,40.996-0.536,40.996-1.198C767.219,233.357,766.214,233.209,764.384,233.073z"/>
	<rect x="694.815" y="229.691" fill="#CDCCCC" width="57.705" height="4.2"/>
</g>
<g>
	<g>
		<g>
			<path fill="none" d="M834.819,243.489c0.043,0,0.082,0.011,0.124,0.013c1.813,0.06,3.324,1.365,3.679,3.09
				c0.052,0.252,0.079,0.513,0.079,0.78c0,1.075-0.437,2.049-1.14,2.755c-0.704,0.705-1.674,1.142-2.743,1.142
				c0.001,0,0.001,0,0.001,0c2.137,0,3.883-1.746,3.883-3.897C838.702,245.235,836.956,243.489,834.819,243.489z"/>
			<polygon fill="none" points="834.818,251.269 834.818,251.269 834.818,251.269 			"/>
			<path fill="#9E8672" d="M837.486,247.372c0-1.481-1.201-2.696-2.696-2.696C836.285,244.677,837.486,245.893,837.486,247.372z"/>
			<path fill="#9E8672" d="M833.396,249.689c0.259,0.159,0.547,0.274,0.853,0.337C833.943,249.963,833.656,249.847,833.396,249.689z
				"/>
			<path fill="#9E8672" d="M834.818,251.269L834.818,251.269c1.069,0,2.039-0.436,2.743-1.142
				C836.857,250.832,835.886,251.269,834.818,251.269z"/>
			<path fill="#9E8672" d="M838.622,246.592c-0.355-1.726-1.865-3.031-3.679-3.09C836.757,243.562,838.267,244.867,838.622,246.592z
				"/>
			
				<line fill="none" stroke="#9E8672" stroke-width="0" stroke-linecap="round" stroke-linejoin="round" x1="813.24" y1="237.68" x2="813.12" y2="237.703"/>
			
				<line fill="none" stroke="#9E8672" stroke-width="0" stroke-linecap="round" stroke-linejoin="round" x1="813.24" y1="184.386" x2="813.112" y2="184.362"/>
			<path fill="#282525" d="M855.111,242.177h-0.001h0h-40.053v-65.054h3.934l-4.293-5.546c-0.905,1.045-1.457,2.406-1.457,3.899
				v8.911v53.293v8.911c0,3.295,2.668,5.963,5.964,5.963h31.228c3.294,0,5.962-2.667,5.963-5.959V225.45l-1.285-1.66V242.177z
				 M834.819,251.269C834.819,251.269,834.818,251.269,834.819,251.269c-0.001,0-0.001,0-0.001,0c-2.151,0-3.897-1.746-3.897-3.897
				c0-0.534,0.109-1.044,0.306-1.508c0.197-0.464,0.483-0.883,0.835-1.235c0.705-0.704,1.679-1.14,2.755-1.14
				c0.001,0,0.001,0,0.001,0c2.137,0,3.883,1.746,3.883,3.883C838.702,249.523,836.956,251.269,834.819,251.269z"/>
			<path fill="#4C4C4D" d="M837.561,250.127c0.704-0.705,1.14-1.679,1.14-2.755c0-0.267-0.027-0.528-0.079-0.78
				c-0.355-1.725-1.865-3.03-3.679-3.09c-0.042-0.001-0.082-0.013-0.124-0.013c0,0,0,0-0.001,0c-1.075,0-2.049,0.436-2.755,1.14
				c-0.353,0.352-0.638,0.77-0.835,1.235c-0.197,0.464-0.306,0.974-0.306,1.508c0,2.151,1.746,3.897,3.897,3.897l0,0
				C835.886,251.269,836.857,250.832,837.561,250.127z M832.095,247.372c0-1.481,1.215-2.696,2.696-2.696
				c1.495,0,2.696,1.215,2.696,2.696c0,1.494-1.201,2.709-2.696,2.709c-0.185,0-0.366-0.019-0.541-0.055
				c-0.306-0.063-0.594-0.179-0.853-0.337C832.618,249.213,832.095,248.353,832.095,247.372z"/>
			<path fill="#282525" d="M833.396,249.689c0.259,0.159,0.547,0.274,0.853,0.337c0.175,0.036,0.356,0.055,0.541,0.055
				c1.495,0,2.696-1.215,2.696-2.709c0-1.48-1.202-2.695-2.696-2.696c-1.481,0-2.696,1.215-2.696,2.696
				C832.095,248.353,832.618,249.213,833.396,249.689z"/>
			<polygon fill="#D6D6D6" points="815.057,242.177 855.11,242.177 855.11,242.177 855.111,242.177 855.111,223.79 818.991,177.123 
				815.057,177.123 			"/>
			<path opacity="0.3" fill="#FFFFFF" d="M814.698,171.577c1.093-1.262,2.704-2.064,4.507-2.064h31.228
				c3.295,0,5.961,2.666,5.963,5.96v49.977L814.698,171.577z"/>
			<path fill="#282525" d="M850.433,169.513h-31.228c-1.803,0-3.414,0.801-4.507,2.064l4.293,5.546h36.119h0.001v46.667l1.285,1.66
				v-49.977C856.394,172.179,853.728,169.513,850.433,169.513z M832.054,174.03h5.529h0.001v1.187h-0.001h-5.529V174.03z
				 M834.819,171.566c0.393,0,0.712,0.319,0.712,0.712s-0.319,0.712-0.712,0.712s-0.712-0.319-0.712-0.712
				S834.426,171.566,834.819,171.566z"/>
			<polygon fill="#D6D6D6" points="855.111,223.79 855.111,177.123 855.11,177.123 818.991,177.123 			"/>
			<polygon fill="#7B2126" points="837.584,175.217 837.584,174.03 837.583,174.03 832.054,174.03 832.054,175.217 837.583,175.217 
							"/>
			<polygon fill="#D6D6D6" points="837.584,175.217 837.584,174.03 837.583,174.03 832.054,174.03 832.054,175.217 837.583,175.217 
							"/>
			<circle fill="#A0575D" cx="834.819" cy="172.278" r="0.712"/>
			<circle fill="#D6D6D6" cx="834.819" cy="172.278" r="0.712"/>
		</g>
		<rect x="812.866" y="177.123" fill="#282525" width="0.751" height="3.667"/>
		<rect x="812.866" y="181.45" fill="#282525" width="0.751" height="3.667"/>
	</g>
	<rect x="839.873" y="168.72" opacity="0.3" fill="#FFFFFF" width="5.686" height="0.751"/>
</g>
<g>
	<path fill="#D88687" d="M827.77,218.546c-0.151-0.11-0.3-0.224-0.446-0.341c-0.485-0.388-0.761-1.043-0.657-1.558
		c0.024-0.12,0.036-0.245,0.036-0.369c0-0.489-0.279-0.941-0.649-1.277l-3.63,2.7l3.211,0.842v3.422l3.673-3.22
		C828.752,218.89,828.159,218.83,827.77,218.546z"/>
	<path fill="#D88687" d="M843.408,216.012c-1.028,0-1.864,0.836-1.864,1.864c0,0.102,0.009,0.207,0.027,0.312
		c0.089,0.509-0.287,1.102-0.894,1.409c-0.118,0.06-0.238,0.118-0.359,0.174c0,0,0,0,0,0l1.631,2.193l0.842-3.211h3.422l-2.358-2.69
		c-0.01-0.002-0.022-0.001-0.032-0.004C843.687,216.028,843.548,216.012,843.408,216.012z"/>
	<path fill="#D88687" d="M846.123,208.658c-0.088-0.069-0.189-0.148-0.297-0.239c-0.693-0.583-1.09-1.435-1.09-2.339
		c0-0.502,0.125-1.001,0.362-1.441c0.172-0.32,0.212-0.663,0.15-0.798c-0.052-0.112-0.106-0.224-0.162-0.334
		c-0.086-0.17-0.431-0.401-0.803-0.537c-1.201-0.439-2.007-1.592-2.007-2.869c0-0.041,0.001-0.081,0.002-0.121
		c-0.046-0.05-0.141-0.138-0.336-0.289c-0.177-0.138-0.359-0.27-0.544-0.397c-0.119-0.081-0.482-0.063-0.747,0.047
		c-0.372,0.155-0.766,0.234-1.172,0.234c-1.148,0-2.188-0.634-2.715-1.656c-0.151-0.293-0.402-0.504-0.542-0.519
		c-0.102-0.01-0.204-0.019-0.307-0.027c0,0,0,0-0.001,0c-0.207,0-0.537,0.18-0.787,0.419c-0.572,0.548-1.322,0.849-2.114,0.849
		c-0.463,0-0.908-0.102-1.323-0.302c-0.232-0.111-0.5-0.181-0.702-0.181c-0.097,0-0.151,0.016-0.175,0.026
		c-0.177,0.073-0.353,0.151-0.527,0.233c-0.18,0.085-0.442,0.422-0.636,0.818c-0.518,1.056-1.569,1.711-2.743,1.711
		c-0.004,0-0.008,0-0.012,0c-0.08,0.064-0.212,0.182-0.351,0.345c-0.198,0.232-0.387,0.474-0.564,0.72
		c-0.154,0.214-0.187,0.556-0.162,0.672c0.049,0.218,0.073,0.44,0.073,0.662c0,0.966-0.443,1.854-1.215,2.437
		c-0.318,0.24-0.584,0.564-0.618,0.753c-0.054,0.3-0.096,0.607-0.125,0.912c-0.018,0.186,0.157,0.556,0.397,0.843
		c0.459,0.548,0.711,1.243,0.711,1.958c0,0.453-0.097,0.889-0.289,1.296c-0.178,0.377-0.225,0.76-0.168,0.912
		c0.056,0.149,0.114,0.296,0.176,0.441c0.059,0.139,0.122,0.252,0.171,0.33c1.371,0.098,2.963,1.464,2.963,3.049
		c0,0.204-0.02,0.407-0.06,0.605c-0.001,0.047,0.064,0.255,0.233,0.391c0.132,0.106,0.267,0.209,0.404,0.308
		c0.113,0.083,0.45,0.064,0.7-0.045c0.388-0.171,0.8-0.257,1.225-0.257c1.227,0,2.331,0.73,2.812,1.859
		c0.122,0.287,0.346,0.496,0.478,0.513c0.164,0.02,0.329,0.037,0.495,0.05l0.011,0c0.125,0,0.353-0.151,0.502-0.396
		c0.56-0.918,1.535-1.466,2.608-1.466c0.685,0,1.358,0.234,1.894,0.659c0.158,0.125,0.365,0.208,0.517,0.208
		c0.028,0,0.068-0.003,0.099-0.017c0.109-0.051,0.218-0.103,0.324-0.157c0.135-0.068,0.215-0.163,0.246-0.213
		c-0.022-0.149-0.033-0.297-0.033-0.444c0-1.686,1.372-3.057,3.057-3.057c0.231,0,0.461,0.026,0.686,0.079c0,0,0.001,0,0.001,0
		c0.093,0,0.248-0.061,0.337-0.196c0.051-0.077,0.102-0.156,0.151-0.235c0.096-0.153,0.095-0.532-0.003-0.842
		c-0.093-0.296-0.14-0.604-0.14-0.915c0-0.971,0.468-1.893,1.253-2.467c0.316-0.231,0.527-0.541,0.541-0.695
		c0.027-0.301,0.037-0.611,0.032-0.776C846.225,208.737,846.17,208.695,846.123,208.658z M836.673,209.67
		c-0.116,0.134-0.237,0.255-0.362,0.358h0.065v0.316c0,0.174-0.14,0.316-0.314,0.316c-0.173,0-0.314,0-0.314,0v1.579h0.314
		c0.173,0,0.314,0.141,0.314,0.316s0,0.316,0,0.316h0.314c0.173,0,0.314,0.145,0.314,0.324v0.614c0,0.179-0.145,0.324-0.324,0.324
		h-3.114c-0.179,0-0.324-0.145-0.324-0.324v-0.614c0-0.179,0.14-0.324,0.314-0.324s0.314,0,0.314,0v-0.316
		c0-0.174,0.14-0.316,0.313-0.316s0.314,0,0.314,0v-1.579h-0.314c-0.173,0-0.313-0.141-0.313-0.316c0-0.174,0-0.316,0-0.316h0.065
		c-0.124-0.103-0.244-0.223-0.359-0.355c-1.6-0.178-2.888-1.888-3.091-4.071c-0.031-0.333,0.244-0.605,0.578-0.605h0.955
		c-0.009-0.134-0.016-0.269-0.021-0.405c-0.008-0.224,0.264-0.405,0.599-0.405h5.059c0.335,0,0.607,0.182,0.599,0.405
		c-0.005,0.136-0.012,0.271-0.021,0.405h0.915c0.335,0,0.609,0.272,0.578,0.606C839.521,207.766,838.254,209.467,836.673,209.67z"/>
	<path fill="#D88687" d="M837.232,208.848c0.966-0.475,1.697-1.709,1.857-3.22h-0.917
		C838.025,206.89,837.692,208.004,837.232,208.848z"/>
	<path fill="#D88687" d="M831.113,205.628c0.164,1.539,0.92,2.791,1.912,3.246c-0.467-0.848-0.806-1.971-0.955-3.246H831.113z"/>
	<path fill="#FFFFFF" d="M847.395,208.314c-0.091-0.248-0.287-0.402-0.536-0.596c-0.079-0.062-0.168-0.131-0.265-0.212
		c-0.422-0.355-0.665-0.875-0.665-1.426c0-0.31,0.074-0.605,0.219-0.876c0.271-0.504,0.461-1.259,0.181-1.864
		c-0.057-0.125-0.117-0.248-0.179-0.37c-0.337-0.669-1.203-1.027-1.46-1.121c-0.732-0.267-1.223-0.97-1.223-1.748
		c0-0.044,0.001-0.089,0.006-0.131c0.058-0.555-0.459-0.956-0.801-1.221c-0.196-0.152-0.396-0.298-0.601-0.439
		c-0.471-0.323-1.237-0.338-1.88-0.07c-0.226,0.094-0.465,0.142-0.712,0.142c-0.699,0-1.333-0.387-1.654-1.009
		c-0.265-0.514-0.793-1.089-1.481-1.159c-0.113-0.012-0.227-0.022-0.341-0.03c-0.78-0.053-1.509,0.563-1.701,0.748
		c-0.552,0.528-1.409,0.664-2.093,0.334c-0.186-0.09-0.679-0.299-1.22-0.299c-0.231,0-0.443,0.039-0.629,0.116
		c-0.197,0.081-0.391,0.167-0.583,0.258c-0.595,0.282-1.005,0.98-1.197,1.371c-0.316,0.644-0.956,1.044-1.672,1.044
		c-0.036,0-0.072-0.002-0.107-0.004l-0.044-0.002c-0.385,0-0.823,0.42-1.121,0.771c-0.218,0.256-0.428,0.524-0.624,0.797
		c-0.362,0.503-0.453,1.201-0.357,1.629c0.03,0.132,0.044,0.267,0.044,0.401c0,0.588-0.27,1.129-0.741,1.485
		c-0.218,0.165-0.941,0.76-1.073,1.494c-0.059,0.332-0.106,0.672-0.138,1.01c-0.073,0.769,0.495,1.513,0.67,1.723
		c0.279,0.333,0.433,0.757,0.433,1.192c0,0.276-0.059,0.54-0.175,0.787c-0.117,0.248-0.477,1.115-0.207,1.838
		c0.062,0.165,0.127,0.329,0.195,0.49c0.296,0.698,0.639,1.053,1.059,1.053c0.001,0,0.001,0,0.002,0l0.054-0.002
		c0.383,0,0.881,0.227,1.275,0.585c0.371,0.336,0.649,0.787,0.649,1.277c0,0.125-0.012,0.249-0.036,0.369
		c-0.104,0.514,0.172,1.169,0.657,1.558c0.146,0.117,0.295,0.231,0.446,0.341c0.389,0.284,0.983,0.345,1.538,0.2
		c0.118-0.031,0.234-0.067,0.346-0.117c0.235-0.103,0.485-0.156,0.744-0.156c0.748,0,1.421,0.445,1.714,1.133
		c0.218,0.513,0.723,1.142,1.429,1.23c0.181,0.023,0.363,0.041,0.547,0.056c0.035,0.003,0.07,0.004,0.105,0.004
		c0.686,0,1.248-0.521,1.52-0.968c0.342-0.56,0.936-0.894,1.59-0.894c0.423,0,0.822,0.139,1.154,0.401
		c0.565,0.446,1.315,0.59,1.86,0.336c0,0,0,0,0,0c0.121-0.056,0.24-0.114,0.359-0.174c0.607-0.307,0.983-0.9,0.894-1.409
		c-0.018-0.105-0.027-0.21-0.027-0.312c0-1.028,0.836-1.864,1.864-1.864c0.14,0,0.279,0.016,0.415,0.048
		c0.01,0.002,0.022,0.001,0.032,0.004c0.081,0.016,0.164,0.028,0.25,0.028c0.51,0,1.029-0.287,1.323-0.732
		c0.056-0.085,0.111-0.17,0.167-0.258c0.344-0.551,0.29-1.309,0.124-1.835c-0.056-0.18-0.085-0.367-0.085-0.557
		c0-0.6,0.279-1.148,0.765-1.504c0.458-0.335,0.968-0.918,1.025-1.552C847.465,209.193,847.494,208.586,847.395,208.314z
		 M846.235,209.548c-0.014,0.154-0.224,0.464-0.541,0.695c-0.785,0.574-1.253,1.496-1.253,2.467c0,0.311,0.047,0.619,0.14,0.915
		c0.098,0.311,0.099,0.689,0.003,0.842c-0.05,0.079-0.1,0.157-0.151,0.235c-0.089,0.135-0.244,0.196-0.337,0.196
		c0,0-0.001,0-0.001,0c-0.225-0.052-0.456-0.079-0.686-0.079c-1.686,0-3.057,1.372-3.057,3.057c0,0.146,0.011,0.295,0.033,0.444
		c-0.031,0.05-0.111,0.145-0.246,0.213c-0.107,0.054-0.215,0.106-0.324,0.157c-0.031,0.015-0.071,0.017-0.099,0.017
		c-0.151,0-0.359-0.084-0.517-0.208c-0.536-0.425-1.209-0.659-1.894-0.659c-1.073,0-2.048,0.548-2.608,1.466
		c-0.149,0.244-0.377,0.396-0.502,0.396l-0.011,0c-0.166-0.013-0.331-0.03-0.495-0.05c-0.132-0.017-0.356-0.226-0.478-0.513
		c-0.481-1.13-1.585-1.859-2.812-1.859c-0.425,0-0.837,0.086-1.225,0.257c-0.25,0.11-0.587,0.128-0.7,0.045
		c-0.137-0.1-0.272-0.203-0.404-0.308c-0.169-0.136-0.234-0.343-0.233-0.391c0.04-0.198,0.06-0.402,0.06-0.605
		c0-1.585-1.591-2.951-2.963-3.049c-0.05-0.078-0.112-0.191-0.171-0.33c-0.062-0.145-0.12-0.292-0.176-0.441
		c-0.057-0.152-0.01-0.535,0.168-0.912c0.192-0.407,0.289-0.843,0.289-1.296c0-0.715-0.252-1.41-0.711-1.958
		c-0.241-0.287-0.415-0.658-0.397-0.843c0.029-0.305,0.071-0.612,0.125-0.912c0.034-0.189,0.3-0.512,0.618-0.753
		c0.772-0.583,1.215-1.472,1.215-2.437c0-0.222-0.025-0.445-0.073-0.662c-0.026-0.116,0.008-0.458,0.162-0.672
		c0.177-0.246,0.366-0.488,0.564-0.72c0.139-0.164,0.27-0.281,0.351-0.345c0.004,0,0.008,0,0.012,0c1.174,0,2.225-0.656,2.743-1.711
		c0.194-0.396,0.456-0.733,0.636-0.818c0.174-0.082,0.349-0.16,0.527-0.233c0.024-0.01,0.078-0.026,0.175-0.026
		c0.202,0,0.47,0.069,0.702,0.181c0.415,0.2,0.86,0.302,1.323,0.302c0.792,0,1.542-0.301,2.114-0.849
		c0.249-0.239,0.58-0.419,0.787-0.419c0,0,0.001,0,0.001,0c0.103,0.008,0.205,0.017,0.307,0.027c0.14,0.014,0.391,0.226,0.542,0.519
		c0.527,1.021,1.567,1.656,2.715,1.656c0.406,0,0.8-0.079,1.172-0.234c0.264-0.11,0.627-0.128,0.747-0.047
		c0.185,0.127,0.367,0.259,0.544,0.397c0.195,0.151,0.29,0.239,0.336,0.289c-0.002,0.04-0.002,0.081-0.002,0.121
		c0,1.278,0.806,2.431,2.007,2.869c0.372,0.136,0.717,0.367,0.803,0.537c0.056,0.11,0.11,0.222,0.162,0.334
		c0.062,0.134,0.023,0.477-0.15,0.798c-0.237,0.44-0.362,0.939-0.362,1.441c0,0.904,0.397,1.757,1.09,2.339
		c0.108,0.091,0.209,0.17,0.297,0.239c0.047,0.037,0.102,0.08,0.144,0.115C846.272,208.937,846.262,209.247,846.235,209.548z"/>
	<path fill="#B3524B" d="M839.144,204.997h-0.915c0.009-0.134,0.016-0.269,0.021-0.405c0.008-0.224-0.264-0.405-0.599-0.405h-5.059
		c-0.335,0-0.607,0.182-0.599,0.405c0.005,0.136,0.012,0.271,0.021,0.405h-0.955c-0.335,0-0.61,0.272-0.578,0.605
		c0.203,2.182,1.491,3.893,3.091,4.071c0.116,0.133,0.235,0.253,0.359,0.355h-0.065c0,0,0,0.141,0,0.316
		c0,0.174,0.14,0.316,0.313,0.316h0.314v1.579c0,0-0.14,0-0.314,0s-0.313,0.141-0.313,0.316v0.316c0,0-0.14,0-0.314,0
		s-0.314,0.145-0.314,0.324v0.614c0,0.179,0.145,0.324,0.324,0.324h3.114c0.179,0,0.324-0.145,0.324-0.324v-0.614
		c0-0.179-0.14-0.324-0.314-0.324h-0.314c0,0,0-0.141,0-0.316s-0.14-0.316-0.314-0.316h-0.314v-1.579c0,0,0.14,0,0.314,0
		c0.173,0,0.314-0.141,0.314-0.316v-0.316h-0.065c0.125-0.104,0.246-0.224,0.362-0.358c1.58-0.203,2.847-1.904,3.049-4.068
		C839.753,205.269,839.479,204.997,839.144,204.997z M831.113,205.628h0.958c0.148,1.275,0.488,2.398,0.955,3.246
		C832.033,208.419,831.277,207.167,831.113,205.628z M837.232,208.848c0.46-0.845,0.793-1.958,0.94-3.22h0.917
		C838.929,207.139,838.198,208.373,837.232,208.848z"/>
</g>
<polygon opacity="0.3" fill="#FFFFFF" points="855.095,223.79 855.095,177.123 855.094,177.123 818.975,177.123 "/>
<path opacity="0.3" fill="#FFFFFF" d="M850.417,169.513h-31.228c-1.803,0-3.414,0.801-4.507,2.064l4.293,5.546h36.119h0.001v46.667
	l1.285,1.66v-49.977C856.378,172.179,853.712,169.513,850.417,169.513z M832.038,174.03h5.529h0.001v1.187h-0.001h-5.529V174.03z
	 M834.803,171.566c0.393,0,0.712,0.319,0.712,0.712c0,0.393-0.319,0.712-0.712,0.712s-0.712-0.319-0.712-0.712
	C834.091,171.884,834.41,171.566,834.803,171.566z"/>
<circle fill="#FFFFFF" cx="726.224" cy="63.088" r="1.597"/>
<g>
	<path fill="#282525" d="M673.916,269.19h-88.54V155.993h15.985l-11.374-14.057h-0.885h-9.13c-3.263,0-5.908,2.645-5.908,5.908
		v120.818h0v7.624c0,3.263,2.645,5.908,5.908,5.908h88.063h11.284c3.263,0,5.908-2.645,5.908-5.908v-14.097v-2.545l-11.312-13.981
		V269.19z"/>
	<polygon fill="#BFBBBB" points="585.375,269.19 673.916,269.19 673.916,245.664 601.361,155.993 585.375,155.993 	"/>
	<path opacity="0.3" fill="#FFFFFF" d="M589.987,141.936h1.269h88.063c3.263,0,5.908,2.645,5.908,5.908v7.624h0v104.177
		L589.987,141.936z"/>
	<path fill="#282525" d="M685.228,155.468v-7.624c0-3.263-2.645-5.908-5.908-5.908h-88.063h-1.269l11.374,14.057h72.555v89.671
		l11.312,13.981L685.228,155.468L685.228,155.468z M629.646,151.713c-0.971,0-1.758-0.787-1.758-1.758s0.787-1.758,1.758-1.758
		s1.758,0.787,1.758,1.758S630.617,151.713,629.646,151.713z"/>
	<path opacity="0.3" fill="#FFFFFF" d="M685.228,155.468v-7.624c0-3.263-2.645-5.908-5.908-5.908h-88.063h-1.269l11.374,14.057
		h72.555v89.671l11.312,13.981L685.228,155.468L685.228,155.468z M629.646,151.713c-0.971,0-1.758-0.787-1.758-1.758
		s0.787-1.758,1.758-1.758s1.758,0.787,1.758,1.758S630.617,151.713,629.646,151.713z"/>
	<polygon fill="#BFBBBB" points="673.916,155.993 601.361,155.993 673.916,245.664 	"/>
	<circle fill="#FFFFFF" cx="629.646" cy="149.955" r="1.758"/>
	<circle opacity="0.3" fill="#FFFFFF" cx="629.646" cy="149.955" r="1.758"/>
</g>
<g>
	<path fill="#D88687" d="M615.728,217.538c-0.294-0.214-0.582-0.435-0.866-0.662c-0.94-0.754-1.476-2.024-1.274-3.022
		c0.047-0.234,0.071-0.475,0.071-0.717c0-0.949-0.541-1.825-1.26-2.477l-7.043,5.239l6.23,1.634v6.639l7.127-6.247
		C617.635,218.208,616.483,218.09,615.728,217.538z"/>
	<path fill="#D88687" d="M646.069,212.623c-1.994,0-3.617,1.623-3.617,3.617c0,0.198,0.018,0.402,0.053,0.605
		c0.173,0.987-0.556,2.138-1.734,2.734c-0.23,0.117-0.462,0.229-0.696,0.338c0,0,0,0-0.001,0l3.165,4.255l1.634-6.23h6.639
		l-4.575-5.22c-0.02-0.004-0.043-0.002-0.063-0.007C646.611,212.654,646.341,212.623,646.069,212.623z"/>
	<path fill="#D88687" d="M651.336,198.354c-0.171-0.134-0.366-0.286-0.577-0.463c-1.344-1.13-2.115-2.784-2.115-4.538
		c0-0.974,0.243-1.941,0.702-2.796c0.334-0.622,0.411-1.287,0.29-1.548c-0.101-0.218-0.205-0.434-0.313-0.648
		c-0.167-0.33-0.837-0.778-1.558-1.042c-2.329-0.851-3.894-3.088-3.894-5.567c0-0.079,0.002-0.157,0.005-0.235
		c-0.09-0.096-0.274-0.268-0.652-0.561c-0.344-0.268-0.696-0.524-1.055-0.77c-0.231-0.158-0.936-0.122-1.448,0.092
		c-0.721,0.301-1.487,0.454-2.274,0.454c-2.227,0-4.245-1.231-5.267-3.212c-0.292-0.568-0.78-0.979-1.051-1.006
		c-0.198-0.02-0.396-0.038-0.596-0.052c0,0-0.001,0-0.002,0c-0.401,0-1.042,0.35-1.526,0.813c-1.109,1.062-2.565,1.647-4.101,1.647
		c-0.898,0-1.761-0.197-2.566-0.586c-0.449-0.216-0.971-0.351-1.362-0.351c-0.189,0-0.294,0.031-0.34,0.05
		c-0.344,0.142-0.685,0.293-1.022,0.452c-0.349,0.165-0.857,0.818-1.234,1.587c-1.005,2.048-3.044,3.32-5.322,3.32
		c-0.008,0-0.016,0-0.024,0c-0.156,0.124-0.411,0.352-0.681,0.67c-0.383,0.45-0.751,0.92-1.094,1.397
		c-0.299,0.416-0.364,1.08-0.314,1.304c0.095,0.422,0.142,0.855,0.142,1.285c0,1.874-0.859,3.597-2.357,4.729
		c-0.617,0.466-1.133,1.094-1.199,1.46c-0.104,0.582-0.186,1.177-0.243,1.77c-0.034,0.36,0.304,1.079,0.771,1.636
		c0.89,1.063,1.38,2.412,1.38,3.798c0,0.879-0.189,1.725-0.561,2.514c-0.345,0.732-0.437,1.474-0.326,1.769
		c0.108,0.29,0.222,0.575,0.341,0.856c0.114,0.27,0.236,0.488,0.332,0.64c2.661,0.19,5.748,2.84,5.748,5.915
		c0,0.395-0.039,0.79-0.116,1.174c-0.002,0.092,0.124,0.494,0.453,0.758c0.256,0.205,0.517,0.405,0.783,0.598
		c0.22,0.161,0.873,0.125,1.358-0.088c0.752-0.331,1.551-0.498,2.376-0.498c2.381,0,4.522,1.416,5.456,3.608
		c0.237,0.556,0.671,0.963,0.928,0.996c0.318,0.039,0.638,0.072,0.96,0.097l0.021,0.001c0.243,0,0.684-0.294,0.974-0.768
		c1.087-1.781,2.978-2.844,5.061-2.844c1.329,0,2.635,0.454,3.675,1.278c0.306,0.242,0.709,0.404,1.003,0.404
		c0.054,0,0.131-0.005,0.191-0.034c0.213-0.099,0.422-0.2,0.629-0.305c0.262-0.133,0.418-0.316,0.477-0.414
		c-0.043-0.289-0.065-0.577-0.065-0.861c0-3.271,2.661-5.932,5.932-5.932c0.448,0,0.895,0.051,1.332,0.153c0.001,0,0.002,0,0.002,0
		c0.181,0,0.481-0.118,0.653-0.38c0.099-0.15,0.197-0.302,0.294-0.455c0.186-0.298,0.185-1.032-0.005-1.635
		c-0.181-0.574-0.272-1.171-0.272-1.775c0-1.883,0.909-3.672,2.432-4.787c0.613-0.448,1.022-1.049,1.049-1.349
		c0.053-0.584,0.072-1.185,0.062-1.505C651.534,198.509,651.428,198.426,651.336,198.354z M633.002,200.319
		c-0.226,0.26-0.459,0.494-0.703,0.695h0.125v0.613c0,0.338-0.272,0.613-0.608,0.613c-0.336,0-0.608,0-0.608,0v3.063h0.608
		c0.336,0,0.608,0.274,0.608,0.613s0,0.613,0,0.613h0.608c0.336,0,0.608,0.282,0.608,0.629v1.192c0,0.348-0.282,0.629-0.629,0.629
		h-6.042c-0.348,0-0.629-0.282-0.629-0.629v-1.192c0-0.348,0.272-0.629,0.609-0.629c0.336,0,0.608,0,0.608,0v-0.613
		c0-0.338,0.272-0.613,0.608-0.613c0.336,0,0.608,0,0.608,0v-3.063h-0.608c-0.336,0-0.608-0.274-0.608-0.613
		c0-0.338,0-0.613,0-0.613h0.125c-0.241-0.199-0.473-0.432-0.697-0.689c-3.105-0.345-5.604-3.664-5.998-7.898
		c-0.06-0.647,0.473-1.175,1.122-1.175h1.853c-0.017-0.26-0.031-0.521-0.04-0.785c-0.016-0.434,0.512-0.786,1.161-0.786h9.814
		c0.65,0,1.178,0.352,1.161,0.786c-0.01,0.264-0.024,0.525-0.041,0.785h1.776c0.65,0,1.183,0.528,1.122,1.175
		C638.527,196.625,636.069,199.925,633.002,200.319z"/>
	<path fill="#D88687" d="M634.087,198.724c1.873-0.922,3.292-3.316,3.604-6.247h-1.78
		C635.626,194.925,634.979,197.085,634.087,198.724z"/>
	<path fill="#D88687" d="M622.216,192.477c0.318,2.985,1.784,5.415,3.71,6.297c-0.906-1.644-1.564-3.824-1.852-6.297H622.216z"/>
	<path fill="#FFFFFF" d="M653.804,197.688c-0.176-0.481-0.558-0.779-1.041-1.157c-0.153-0.119-0.326-0.255-0.514-0.412
		c-0.819-0.689-1.289-1.698-1.289-2.766c0-0.602,0.143-1.174,0.426-1.7c0.526-0.979,0.895-2.442,0.352-3.616
		c-0.112-0.242-0.228-0.481-0.347-0.719c-0.654-1.297-2.333-1.992-2.832-2.175c-1.42-0.518-2.373-1.881-2.373-3.392
		c0-0.086,0.002-0.172,0.011-0.255c0.112-1.076-0.891-1.855-1.554-2.37c-0.38-0.295-0.769-0.579-1.167-0.851
		c-0.914-0.627-2.4-0.655-3.648-0.135c-0.438,0.183-0.903,0.276-1.382,0.276c-1.357,0-2.586-0.751-3.21-1.958
		c-0.514-0.997-1.539-2.112-2.873-2.248c-0.22-0.023-0.441-0.042-0.661-0.058c-1.513-0.102-2.927,1.093-3.3,1.45
		c-1.071,1.025-2.733,1.288-4.06,0.648c-0.362-0.174-1.317-0.581-2.367-0.581c-0.448,0-0.859,0.075-1.221,0.224
		c-0.381,0.157-0.758,0.324-1.131,0.5c-1.154,0.547-1.951,1.902-2.323,2.661c-0.613,1.249-1.855,2.025-3.243,2.025
		c-0.07,0-0.14-0.003-0.208-0.008l-0.085-0.003c-0.748,0-1.596,0.814-2.175,1.496c-0.424,0.497-0.831,1.017-1.21,1.546
		c-0.702,0.976-0.88,2.33-0.693,3.161c0.057,0.256,0.086,0.518,0.086,0.779c0,1.141-0.524,2.191-1.437,2.881
		c-0.424,0.32-1.825,1.475-2.081,2.898c-0.115,0.644-0.206,1.303-0.269,1.959c-0.142,1.491,0.96,2.936,1.3,3.343
		c0.542,0.647,0.84,1.468,0.84,2.312c0,0.535-0.115,1.048-0.34,1.528c-0.227,0.482-0.926,2.163-0.401,3.566
		c0.119,0.321,0.246,0.638,0.379,0.95c0.574,1.355,1.24,2.043,2.054,2.043c0.002,0,0.003,0,0.004,0l0.104-0.003
		c0.742,0,1.709,0.441,2.474,1.134c0.719,0.652,1.26,1.528,1.26,2.477c0,0.242-0.024,0.483-0.071,0.717
		c-0.201,0.998,0.334,2.268,1.274,3.022c0.284,0.227,0.572,0.448,0.866,0.662c0.755,0.552,1.906,0.669,2.985,0.388
		c0.228-0.06,0.454-0.131,0.671-0.226c0.456-0.2,0.942-0.302,1.444-0.302c1.451,0,2.756,0.864,3.325,2.199
		c0.424,0.995,1.403,2.216,2.773,2.386c0.351,0.044,0.705,0.079,1.062,0.108c0.068,0.005,0.136,0.008,0.204,0.008
		c1.332,0,2.421-1.011,2.95-1.877c0.663-1.086,1.816-1.735,3.085-1.735c0.821,0,1.595,0.269,2.239,0.778
		c1.096,0.866,2.552,1.145,3.609,0.653c0,0,0,0,0.001,0c0.234-0.109,0.466-0.222,0.696-0.338c1.178-0.596,1.907-1.747,1.734-2.734
		c-0.035-0.203-0.053-0.407-0.053-0.605c0-1.994,1.623-3.617,3.617-3.617c0.271,0,0.542,0.031,0.805,0.093
		c0.02,0.005,0.042,0.003,0.063,0.007c0.157,0.032,0.318,0.054,0.485,0.054c0.99,0,1.997-0.557,2.567-1.42
		c0.109-0.164,0.216-0.33,0.323-0.501c0.668-1.069,0.562-2.54,0.241-3.559c-0.109-0.349-0.165-0.712-0.165-1.08
		c0-1.165,0.541-2.228,1.484-2.918c0.889-0.65,1.877-1.782,1.988-3.01C653.941,199.393,653.997,198.215,653.804,197.688z
		 M651.554,200.081c-0.027,0.3-0.436,0.901-1.049,1.349c-1.523,1.114-2.432,2.903-2.432,4.787c0,0.604,0.091,1.201,0.272,1.775
		c0.19,0.603,0.191,1.337,0.005,1.635c-0.096,0.153-0.194,0.305-0.294,0.455c-0.173,0.262-0.472,0.38-0.653,0.38
		c-0.001,0-0.001,0-0.002,0c-0.436-0.102-0.884-0.153-1.332-0.153c-3.271,0-5.932,2.661-5.932,5.932
		c0,0.284,0.022,0.572,0.065,0.861c-0.06,0.098-0.216,0.281-0.477,0.414c-0.207,0.105-0.417,0.206-0.629,0.305
		c-0.06,0.029-0.137,0.034-0.191,0.034c-0.294,0-0.697-0.162-1.003-0.404c-1.041-0.824-2.346-1.278-3.675-1.278
		c-2.082,0-3.974,1.063-5.061,2.844c-0.289,0.474-0.731,0.768-0.974,0.768l-0.021-0.001c-0.322-0.026-0.642-0.058-0.96-0.097
		c-0.257-0.032-0.691-0.439-0.928-0.996c-0.934-2.192-3.075-3.608-5.456-3.608c-0.825,0-1.624,0.167-2.376,0.498
		c-0.485,0.213-1.138,0.249-1.358,0.088c-0.266-0.194-0.527-0.393-0.783-0.598c-0.329-0.264-0.454-0.666-0.453-0.758
		c0.077-0.384,0.116-0.779,0.116-1.174c0-3.075-3.087-5.725-5.748-5.915c-0.096-0.151-0.218-0.37-0.332-0.64
		c-0.119-0.282-0.233-0.567-0.341-0.856c-0.11-0.295-0.018-1.037,0.326-1.769c0.372-0.79,0.561-1.636,0.561-2.514
		c0-1.386-0.49-2.735-1.38-3.798c-0.467-0.557-0.805-1.276-0.771-1.636c0.057-0.593,0.139-1.188,0.243-1.77
		c0.066-0.366,0.581-0.994,1.199-1.46c1.498-1.132,2.357-2.855,2.357-4.729c0-0.43-0.048-0.863-0.142-1.285
		c-0.05-0.225,0.015-0.888,0.314-1.304c0.343-0.477,0.711-0.947,1.094-1.397c0.269-0.317,0.525-0.546,0.681-0.67
		c0.008,0,0.016,0,0.024,0c2.278,0,4.317-1.272,5.322-3.32c0.377-0.769,0.885-1.421,1.234-1.587c0.337-0.159,0.677-0.31,1.022-0.452
		c0.046-0.019,0.151-0.05,0.34-0.05c0.391,0,0.913,0.135,1.362,0.351c0.805,0.388,1.669,0.586,2.566,0.586
		c1.536,0,2.992-0.585,4.101-1.647c0.484-0.463,1.125-0.813,1.526-0.813c0.001,0,0.002,0,0.002,0c0.2,0.015,0.398,0.032,0.596,0.052
		c0.271,0.028,0.759,0.439,1.051,1.006c1.022,1.981,3.04,3.212,5.267,3.212c0.787,0,1.552-0.153,2.274-0.454
		c0.512-0.213,1.217-0.249,1.448-0.092c0.359,0.246,0.711,0.503,1.055,0.77c0.378,0.293,0.562,0.465,0.652,0.561
		c-0.003,0.078-0.005,0.156-0.005,0.235c0,2.479,1.565,4.716,3.894,5.567c0.722,0.263,1.392,0.711,1.558,1.042
		c0.109,0.214,0.213,0.43,0.313,0.648c0.121,0.261,0.044,0.926-0.29,1.548c-0.459,0.855-0.702,1.822-0.702,2.796
		c0,1.754,0.771,3.408,2.115,4.538c0.21,0.177,0.405,0.329,0.577,0.463c0.092,0.072,0.197,0.154,0.28,0.222
		C651.627,198.896,651.607,199.497,651.554,200.081z"/>
	<path fill="#B3524B" d="M637.796,191.252h-1.776c0.017-0.26,0.031-0.521,0.041-0.785c0.016-0.434-0.511-0.786-1.161-0.786h-9.814
		c-0.65,0-1.178,0.352-1.161,0.786c0.01,0.264,0.024,0.525,0.04,0.785h-1.853c-0.65,0-1.183,0.528-1.122,1.175
		c0.394,4.234,2.893,7.553,5.998,7.898c0.225,0.257,0.456,0.49,0.697,0.689h-0.125c0,0,0,0.274,0,0.613
		c0,0.338,0.272,0.613,0.608,0.613h0.608v3.063c0,0-0.272,0-0.608,0c-0.336,0-0.608,0.274-0.608,0.613v0.613c0,0-0.272,0-0.608,0
		c-0.336,0-0.609,0.282-0.609,0.629v1.192c0,0.348,0.282,0.629,0.629,0.629h6.042c0.348,0,0.629-0.282,0.629-0.629v-1.192
		c0-0.348-0.272-0.629-0.608-0.629h-0.608c0,0,0-0.274,0-0.613s-0.272-0.613-0.608-0.613h-0.608v-3.063c0,0,0.272,0,0.608,0
		c0.336,0,0.608-0.274,0.608-0.613v-0.613H632.3c0.243-0.201,0.477-0.435,0.703-0.695c3.066-0.393,5.525-3.694,5.916-7.892
		C638.978,191.78,638.445,191.252,637.796,191.252z M622.216,192.477h1.858c0.288,2.473,0.946,4.653,1.852,6.297
		C624,197.892,622.534,195.462,622.216,192.477z M634.087,198.724c0.892-1.639,1.539-3.799,1.824-6.247h1.78
		C637.378,195.408,635.96,197.802,634.087,198.724z"/>
</g>
<polygon opacity="0.3" fill="#FFFFFF" points="673.885,155.993 601.33,155.993 673.885,245.664 "/>
<path fill="#B35352" d="M234.368,80.173c-7.121-14.897-18.301-27.842-32.341-37.433c-0.543-0.369-1.082-0.558-1.609-0.558
	c-1.028,0-2.07,0.779-2.07,2.521v31.325c0,1.732,1.006,4.089,2.294,5.366c9.338,9.294,16.38,21.914,19.828,35.536
	c2.505,9.903,3.032,19.999,1.603,29.829c0.42-10.805-1.319-21.661-4.218-27.829c-3.246-8.345-8.944-16.976-16.049-24.305
	c-0.577-0.596-1.164-0.896-1.748-0.896c-0.786,0-1.707,0.606-1.707,2.319v36.171c0,1.757,0.618,4.291,1.215,5.723
	c3.833,9.2,5.038,19.178,3.486,28.861c-1.581,9.868-6.01,19.232-12.812,27.081c-0.161,0.186-0.442,0.082-0.445-0.183
	c-0.025-5.404-0.145-153.197-0.145-154.687c0-1.924-1.36-4.007-3.098-4.742c-11.626-4.922-23.904-7.414-36.492-7.414
	c-4.694,0-9.414,0.36-14.023,1.066c-19.065,2.931-36.442,11.468-50.254,24.693c-13.806,13.216-23.169,30.268-27.081,49.304
	c-3.824,17.377-1.947,36.496,5.288,53.832c3.587,8.597,8.379,16.585,14.241,23.737c6.032,7.36,13.061,13.664,20.892,18.737
	c0.53,0.344,1.06,0.517,1.574,0.517c1.057,0,2.123-0.789,2.123-2.555v-10.553c0-1.596-0.536-4.111-1.224-5.726
	c-6.177-14.55-6.193-28.962-0.054-42.827c0.628-1.417,1.275-3.94,1.275-5.717V94.682c0-1.719-0.931-2.331-1.729-2.331
	c-0.401,0-1.028,0.151-1.745,0.877c-5.467,5.512-12.935,14.717-17.462,27.283c-3.354,9.304-4.944,16.125-3.994,25.98
	c-0.634-2.978-0.555-3.145-0.757-6.117c-0.571-8.332,0.278-16.651,2.518-24.718c3.887-13.992,12.017-27.179,22.892-37.127
	l0.991-0.89c2.268-2.003,4.625-3.836,6.998-5.442c0.328-0.224,0.546-0.256,0.647-0.256c0.104,0,0.167,0.032,0.227,0.11
	c0.11,0.145,0.174,0.413,0.174,0.735c-0.006,15.888-0.041,111.197-0.047,128.88c0,1.937,1.435,3.915,3.268,4.505
	c6.01,1.931,20.746,6.477,27.794,6.96c0.082,0.006,0.164,0.009,0.246,0.009c0.924,0,1.789-0.36,2.442-1.01
	c0.669-0.669,1.035-1.568,1.035-2.53l-0.161-147.282c0-0.527,0.243-1.079,0.669-1.505c0.42-0.42,0.956-0.663,1.467-0.663h4.748
	c1.088,0,1.975,0.887,1.975,1.975v122.74l0.022,24.671c0.003,1.959,1.511,3.492,3.436,3.492l0,0c0.098,0,0.196-0.003,0.297-0.013
	c18.718-1.559,37.218-9.436,52.096-22.176c16.595-14.213,27.343-33.297,31.091-55.201C245.063,115.87,242.508,97.209,234.368,80.173
	z"/>
<g>
	<rect x="145.729" y="-65.689" fill="#E2AB50" width="1" height="326.531"/>
</g>
<g>
	<rect x="153.964" y="-60.323" fill="#E2AB50" width="1" height="326.531"/>
</g>
<g>
	<g>
		<rect x="-6.777" y="25.616" fill="#E2AB50" width="326.531" height="1"/>
	</g>
</g>
<g>
	<g>
		<line fill="#E2AB50" x1="283.913" y1="203.779" x2="283.913" y2="204.779"/>
	</g>
	<g>
		<rect x="-22.531" y="212.014" fill="#E2AB50" width="326.531" height="1"/>
	</g>
</g>
<g>
	<rect x="189.503" y="-52.373" fill="#E2AB50" width="1" height="326.531"/>
</g>
<g>
	<rect x="197.738" y="-47.006" fill="#E2AB50" width="1" height="326.531"/>
</g>
<g>
	<rect x="102.729" y="-49.689" fill="#E2AB50" width="1" height="326.531"/>
</g>
<g>
	<rect x="110.964" y="-44.323" fill="#E2AB50" width="1" height="326.531"/>
</g>
<g>
	<g>
		<rect x="-6" y="185.513" fill="#E2AB50" width="387.809" height="1"/>
	</g>
	<g>
		<line fill="#E2AB50" x1="376.442" y1="193.748" x2="376.442" y2="194.748"/>
		<line fill="#E2AB50" x1="-11.366" y1="194.748" x2="-11.366" y2="193.748"/>
	</g>
</g>
<g>
	<path fill="#E2AB50" d="M150,213.261c-51.424,0-93.261-41.837-93.261-93.261c0-51.424,41.837-93.261,93.261-93.261
		c51.424,0,93.261,41.837,93.261,93.261C243.261,171.424,201.424,213.261,150,213.261z M150,27.739
		c-50.873,0-92.261,41.388-92.261,92.261S99.127,212.261,150,212.261s92.261-41.388,92.261-92.261S200.873,27.739,150,27.739z"/>
</g>
<g>
	<path fill="#E2AB50" d="M150,213.642c-41.396,0-75.075-34.54-75.075-76.995S108.604,59.652,150,59.652s75.074,34.54,75.074,76.995
		S191.396,213.642,150,213.642z M150,60.652c-40.845,0-74.075,34.091-74.075,75.995c0,41.904,33.23,75.995,74.075,75.995
		s74.074-34.091,74.074-75.995C224.074,94.743,190.845,60.652,150,60.652z"/>
</g>
<g>
	<path fill="#E2AB50" d="M150.157,213.261c-30.058,0-54.512-24.454-54.512-54.512c0-30.059,24.454-54.513,54.512-54.513
		s54.512,24.454,54.512,54.513C204.669,188.807,180.215,213.261,150.157,213.261z M150.157,105.236
		c-29.507,0-53.512,24.006-53.512,53.513s24.005,53.512,53.512,53.512c29.506,0,53.512-24.005,53.512-53.512
		S179.663,105.236,150.157,105.236z"/>
</g>
<g>
	<g>
		<rect x="-15" y="69.918" fill="#E2AB50" width="346.897" height="1"/>
	</g>
	<g>
		<rect x="-20.366" y="78.153" fill="#E2AB50" width="346.897" height="1"/>
	</g>
</g>
<polyline fill="#E2AB50" points="-18.984,92.709 327.913,92.709 327.913,93.709 -18.984,93.709 "/>
<g>
	<rect x="-13" y="203.779" fill="#E2AB50" width="346.797" height="1"/>
</g>
<g>
	<rect x="-51.404" y="194.248" fill="#E2AB50" width="346.797" height="1"/>
</g>
<rect x="-75.443" y="-187.02" fill="#E2AB50" width="137.331" height="137.331"/>
</svg>
