<?xml version="1.0" encoding="utf-8"?>
<!-- Generator: Adobe Illustrator 17.0.0, SVG Export Plug-In . SVG Version: 6.00 Build 0)  -->
<!DOCTYPE svg PUBLIC "-//W3C//DTD SVG 1.1//EN" "http://www.w3.org/Graphics/SVG/1.1/DTD/svg11.dtd">
<svg version="1.1" id="Layer_1" xmlns="http://www.w3.org/2000/svg" xmlns:xlink="http://www.w3.org/1999/xlink" x="0px" y="0px"
	 width="48px" height="48px" viewBox="0 0 48 48" enable-background="new 0 0 48 48" xml:space="preserve">
<path fill="#B25251" d="M40.248,16.33c-1.371-2.869-3.525-5.362-6.228-7.209c-0.104-0.071-0.209-0.107-0.31-0.107
	c-0.198,0-0.398,0.15-0.398,0.486v6.033c0,0.333,0.194,0.787,0.442,1.034c1.799,1.79,3.155,4.22,3.818,6.844
	c0.482,1.907,0.584,3.851,0.309,5.745c0.081-2.081-0.254-4.172-0.812-5.359c-0.625-1.607-1.723-3.269-3.091-4.681
	c-0.111-0.115-0.224-0.173-0.337-0.173c-0.152,0-0.329,0.117-0.329,0.447v6.966c0,0.338,0.119,0.826,0.234,1.102
	c0.738,1.771,0.97,3.694,0.672,5.558c-0.305,1.901-1.158,3.704-2.467,5.216c-0.031,0.036-0.085,0.016-0.085-0.035
	c-0.005-1.041-0.028-29.504-0.028-29.791c0-0.37-0.262-0.771-0.597-0.913c-2.239-0.948-4.603-1.428-7.028-1.428
	c-0.904,0-1.813,0.069-2.701,0.206c-3.671,0.564-7.018,2.209-9.678,4.755c-2.658,2.545-4.462,5.829-5.215,9.495
	c-0.737,3.347-0.375,7.029,1.018,10.367c0.691,1.656,1.614,3.194,2.743,4.572c1.162,1.418,2.515,2.632,4.023,3.608
	c0.102,0.066,0.204,0.1,0.303,0.1c0.204,0,0.409-0.152,0.409-0.492v-2.032c0-0.307-0.103-0.792-0.236-1.103
	c-1.19-2.802-1.193-5.578-0.01-8.248c0.121-0.273,0.246-0.759,0.246-1.101v-7.065c0-0.331-0.179-0.449-0.333-0.449
	c-0.077,0-0.198,0.029-0.336,0.169c-1.053,1.061-2.491,2.835-3.363,5.255c-0.646,1.792-0.952,3.105-0.769,5.003
	c-0.122-0.574-0.107-0.606-0.146-1.178c-0.11-1.605,0.053-3.207,0.485-4.76c0.749-2.695,2.314-5.234,4.408-7.15l0.191-0.172
	c0.437-0.386,0.89-0.739,1.347-1.048c0.063-0.043,0.105-0.049,0.125-0.049s0.032,0.006,0.044,0.021
	c0.021,0.028,0.034,0.08,0.034,0.142c-0.001,3.06-0.008,21.415-0.009,24.821c0,0.373,0.276,0.754,0.63,0.868
	c1.157,0.372,3.995,1.247,5.353,1.34c0.016,0.001,0.032,0.002,0.047,0.002c0.178,0,0.345-0.069,0.47-0.195
	c0.129-0.129,0.199-0.302,0.199-0.487l-0.031-28.365c0-0.101,0.047-0.208,0.129-0.29c0.081-0.081,0.184-0.127,0.283-0.127h0.915
	c0.21,0,0.38,0.171,0.38,0.38v23.639l0.004,4.751c0,0.377,0.291,0.673,0.662,0.673l0,0c0.019,0,0.038-0.001,0.057-0.002
	c3.605-0.3,7.168-1.817,10.033-4.271c3.196-2.737,5.266-6.413,5.988-10.631C42.308,23.205,41.816,19.611,40.248,16.33z"/>
</svg>
