<?xml version="1.0" encoding="utf-8"?>
<!-- Generator: Adobe Illustrator 17.0.1, SVG Export Plug-In . SVG Version: 6.00 Build 0)  -->
<!DOCTYPE svg PUBLIC "-//W3C//DTD SVG 1.1//EN" "http://www.w3.org/Graphics/SVG/1.1/DTD/svg11.dtd">
<svg version="1.1" id="Layer_1" xmlns="http://www.w3.org/2000/svg" xmlns:xlink="http://www.w3.org/1999/xlink" x="0px" y="0px"
	 width="30px" height="30px" viewBox="0 0 30 30" enable-background="new 0 0 30 30" xml:space="preserve">
<path d="M-97.481-23.563c-0.166-0.811-0.414-1.61-0.736-2.373c-0.316-0.749-0.708-1.47-1.164-2.145
	c-0.451-0.668-0.97-1.297-1.541-1.867c-0.571-0.572-1.2-1.09-1.868-1.541c-0.674-0.457-1.397-0.848-2.145-1.165
	c-0.763-0.321-1.561-0.571-2.373-0.735c-0.832-0.171-1.687-0.257-2.542-0.257c-0.856,0-1.711,0.087-2.543,0.257
	c-0.811,0.165-1.61,0.414-2.372,0.735c-0.748,0.317-1.47,0.708-2.145,1.165c-0.668,0.451-1.297,0.97-1.868,1.541
	c-0.571,0.571-1.089,1.199-1.54,1.867c-0.456,0.674-0.848,1.396-1.164,2.145c-0.323,0.763-0.571,1.562-0.737,2.373
	c-0.17,0.83-0.256,1.686-0.256,2.541c0,0.857,0.086,1.713,0.256,2.544c0.166,0.811,0.414,1.61,0.737,2.372
	c0.316,0.748,0.708,1.471,1.164,2.146c0.451,0.668,0.97,1.296,1.54,1.867c0.571,0.571,1.2,1.088,1.868,1.54
	c0.675,0.456,1.397,0.848,2.145,1.164c0.763,0.323,1.561,0.57,2.372,0.736c0.832,0.172,1.687,0.257,2.543,0.257
	c0.855,0,1.71-0.086,2.542-0.257c0.812-0.167,1.61-0.413,2.373-0.736c0.748-0.316,1.47-0.708,2.145-1.164
	c0.668-0.452,1.297-0.97,1.868-1.54c0.571-0.572,1.089-1.199,1.541-1.867c0.456-0.674,0.848-1.398,1.164-2.146
	c0.322-0.762,0.571-1.561,0.736-2.372c0.171-0.831,0.257-1.687,0.257-2.544C-97.225-21.877-97.311-22.733-97.481-23.563z
	 M-99.071-21.129c-0.156-0.034-3.805-0.819-7.51-0.353c-0.076-0.185-0.153-0.37-0.232-0.557c-0.224-0.528-0.466-1.05-0.717-1.564
	c4.258-1.738,5.987-4.238,6.007-4.268C-100.011-26.034-99.096-23.687-99.071-21.129z M-102.729-29.113
	c-0.026,0.042-1.562,2.379-5.632,3.905c-1.843-3.387-3.868-6.077-4.03-6.291c0.815-0.198,1.665-0.304,2.541-0.304
	C-107.12-31.804-104.629-30.786-102.729-29.113z M-112.433-31.49c-0.001,0.001-0.002,0.002-0.002,0.002s-0.012,0.003-0.032,0.007
	C-112.456-31.485-112.444-31.487-112.433-31.49z M-114.451-30.773c0.143,0.193,2.137,2.896,4.004,6.213
	c-5.177,1.376-9.671,1.322-9.955,1.317C-119.702-26.583-117.458-29.353-114.451-30.773z M-120.633-21.022
	c0-0.115,0.005-0.227,0.009-0.34c0.19,0.004,5.518,0.125,11.07-1.536c0.309,0.605,0.605,1.219,0.875,1.833
	c-0.143,0.04-0.284,0.083-0.425,0.129c-5.819,1.88-8.77,7.117-8.77,7.117s0.003,0.003,0.004,0.005
	C-119.587-15.726-120.633-18.252-120.633-21.022z M-109.85-10.238c-2.61,0-5.003-0.928-6.869-2.471
	c0.142,0.115,0.241,0.189,0.241,0.189s2.067-4.508,8.462-6.736c0.023-0.009,0.047-0.016,0.071-0.023
	c1.517,3.942,2.144,7.244,2.303,8.187C-106.934-10.542-108.357-10.238-109.85-10.238z M-103.825-12.078
	c-0.11-0.651-0.684-3.816-2.099-7.702c3.481-0.557,6.497,0.398,6.72,0.471C-99.684-16.304-101.404-13.713-103.825-12.078z"/>
<g>
	<path fill="#D3D3D3" d="M-39.111-38.73v-0.04c-0.008,0.013-0.017,0.026-0.025,0.04H-39.111z"/>
	<path fill="#D3D3D3" d="M-29.308-50.189h-21.513c-1.03,0-1.865,0.815-1.865,1.82v21.765c0,1.004,0.835,1.82,1.865,1.82h21.513
		c1.031,0,1.866-0.816,1.866-1.82v-21.765C-27.442-49.374-28.277-50.189-29.308-50.189z M-45.034-28.923h-3.813v-11.471h3.813
		V-28.923z M-46.94-41.96h-0.025c-1.279,0-2.106-0.881-2.106-1.982c0-1.125,0.853-1.982,2.157-1.982s2.107,0.857,2.133,1.982
		C-44.783-42.842-45.611-41.96-46.94-41.96z M-31.285-28.923h-3.812v-6.138c0-1.542-0.552-2.594-1.932-2.594
		c-1.053,0-1.68,0.709-1.956,1.395c-0.101,0.245-0.125,0.587-0.125,0.93v6.406h-3.813c0,0,0.05-10.396,0-11.471h3.813v1.624
		c0.507-0.781,1.413-1.894,3.437-1.894c2.508,0,4.389,1.64,4.389,5.164L-31.285-28.923L-31.285-28.923z"/>
</g>
<path fill="#A0A0A0" d="M27.581,7.196c-0.925,0.411-1.92,0.688-2.965,0.813c1.066-0.638,1.884-1.65,2.27-2.856
	c-0.998,0.592-2.102,1.022-3.278,1.253c-0.941-1.003-2.283-1.63-3.768-1.63c-2.851,0-5.162,2.311-5.162,5.162
	c0,0.405,0.046,0.798,0.134,1.176c-4.29-0.215-8.094-2.27-10.64-5.393c-0.445,0.762-0.7,1.648-0.7,2.595
	c0,1.791,0.911,3.371,2.296,4.297c-0.846-0.027-1.642-0.259-2.338-0.646c0,0.021,0,0.043,0,0.065c0,2.501,1.779,4.587,4.141,5.062
	c-0.433,0.118-0.889,0.181-1.36,0.181c-0.333,0-0.656-0.032-0.971-0.093c0.657,2.051,2.564,3.543,4.822,3.585
	c-1.767,1.385-3.992,2.21-6.411,2.21c-0.416,0-0.827-0.025-1.231-0.072c2.285,1.465,4.998,2.319,7.913,2.319
	c9.495,0,14.687-7.866,14.687-14.688c0-0.223-0.004-0.447-0.014-0.668C26.014,9.141,26.889,8.232,27.581,7.196z"/>
<g>
	<path fill="#B35252" d="M22.547-33.12H18.71v-3.836c0-0.293-0.237-0.531-0.53-0.531h-1.092c-0.294,0-0.532,0.238-0.532,0.531v3.836
		h-3.837c-0.292,0-0.531,0.238-0.531,0.531v1.093c0,0.293,0.238,0.531,0.531,0.531h3.837v3.837c0,0.293,0.238,0.531,0.532,0.531
		h1.092c0.293,0,0.53-0.237,0.53-0.531v-3.837h3.837c0.292,0,0.531-0.237,0.531-0.531v-1.093
		C23.077-32.881,22.839-33.12,22.547-33.12z"/>
	<path fill="#B35252" d="M9.653-29.756c-0.807-0.571-1.541-1.409-1.554-1.666c0-0.469,0.042-0.693,1.093-1.512
		c1.36-1.065,2.109-2.465,2.109-3.943c0-1.341-0.41-2.532-1.107-3.368h0.541c0.112,0,0.221-0.035,0.312-0.1l1.509-1.093
		c0.188-0.134,0.266-0.374,0.194-0.593c-0.071-0.219-0.274-0.368-0.505-0.368h-6.75c-0.739,0-1.489,0.13-2.226,0.384
		c-2.46,0.848-4.18,2.944-4.18,5.096c0,3.049,2.362,5.359,5.519,5.432c-0.062,0.241-0.093,0.479-0.093,0.713
		c0,0.47,0.119,0.915,0.364,1.345C4.852-29.43,4.824-29.43,4.793-29.43c-3.009,0-5.726,1.476-6.757,3.674
		c-0.269,0.571-0.405,1.149-0.405,1.719c0,0.555,0.143,1.089,0.422,1.59c0.648,1.159,2.04,2.059,3.921,2.534
		c0.971,0.245,2.015,0.371,3.098,0.371c0.974,0,1.901-0.126,2.76-0.375c2.676-0.777,4.405-2.746,4.405-5.02
		C12.236-27.119,11.535-28.424,9.653-29.756z M1.128-24.762c0-1.587,2.016-2.979,4.314-2.979l0.062,0.001
		c0.5,0.005,0.988,0.08,1.448,0.22c0.157,0.109,0.31,0.212,0.456,0.312c1.064,0.725,1.767,1.204,1.963,1.973
		c0.046,0.193,0.069,0.387,0.069,0.574c0,1.976-1.474,2.978-4.381,2.978C2.854-21.683,1.128-23.036,1.128-24.762z M3.219-39.756
		c0.359-0.41,0.829-0.627,1.358-0.627l0.06,0.001c1.492,0.044,2.919,1.706,3.182,3.706c0.147,1.12-0.102,2.172-0.665,2.814
		c-0.36,0.41-0.823,0.627-1.373,0.627c0,0,0,0-0.001,0H5.755c-1.461-0.044-2.919-1.771-3.18-3.768
		C2.428-38.119,2.663-39.122,3.219-39.756z"/>
</g>
<rect x="-306.864" y="-177.502" fill="#D3D3D3" width="53.737" height="63.636"/>
<rect x="-205.046" y="-174.674" fill="#B35252" width="57.121" height="76.363"/>
</svg>
